<?xml version="1.0" encoding="utf-8"?>
<!-- Generator: Adobe Illustrator 16.0.0, SVG Export Plug-In . SVG Version: 6.00 Build 0)  -->
<!DOCTYPE svg PUBLIC "-//W3C//DTD SVG 1.1//EN" "http://www.w3.org/Graphics/SVG/1.1/DTD/svg11.dtd">
<svg version="1.1" id="Layer_1" xmlns="http://www.w3.org/2000/svg" xmlns:xlink="http://www.w3.org/1999/xlink" x="0px" y="0px"
	 width="538.582px" height="538.582px" viewBox="-297.5 420.5 538.582 538.582"
	 enable-background="new -297.5 420.5 538.582 538.582" xml:space="preserve">
<g>
	<path fill="#2C3E50" d="M156.76,680.405h-35.741l23.232-15.19c4.471-2.681,5.36-8.936,2.681-12.51
		c-2.681-4.468-8.936-5.359-12.51-2.681l-48.253,30.381H-5.863l64.333-64.333l55.396-12.51c5.36-0.896,8.039-6.255,7.152-10.726
		c-0.896-5.359-6.255-8.041-10.726-7.149l-26.803,6.258l25.019-25.021c3.574-3.577,3.574-9.832,0-13.407
		c-3.575-3.573-9.83-3.573-13.407,0l-25.019,25.02l6.254-26.803c0.897-5.359-1.784-9.83-7.149-10.727
		c-5.36-0.893-9.83,1.787-10.726,7.15l-12.51,55.398l-65.228,64.335v-92.034l30.378-48.252c2.681-4.471,1.784-9.83-2.68-12.51
		c-4.472-2.681-9.83-1.785-12.51,2.68l-15.189,23.232V505.27c0-5.361-4.47-8.937-8.935-8.937c-4.469,0-8.935,4.471-8.935,8.937
		v35.741l-15.189-23.232c-2.68-4.471-8.935-5.36-12.511-2.68c-4.471,2.68-5.358,8.934-2.678,12.51l30.378,48.252v92.034
		l-64.332-64.335l-12.51-55.398c-0.897-5.36-6.255-8.04-10.726-7.15c-5.358,0.897-8.039,6.255-7.152,10.726l6.255,26.804
		l-25.018-25.02c-3.575-3.573-9.83-3.573-13.404,0c-3.577,3.575-3.577,9.83,0,13.407l25.02,25.02l-26.806-6.257
		c-5.358-0.896-9.829,1.785-10.723,7.149c-0.896,5.363,1.784,9.83,7.149,10.726l55.399,12.51l64.333,64.333h-92.928l-47.358-30.381
		c-4.471-2.679-9.83-1.784-12.509,2.681c-2.681,4.47-1.784,9.829,2.679,12.51l23.235,15.19h-35.737c-5.359,0-8.935,4.47-8.935,8.935
		c0,4.468,4.471,8.935,8.935,8.935h35.743l-23.235,15.189c-4.469,2.68-5.36,8.935-2.679,12.51c1.784,2.68,4.469,4.469,8.039,4.469
		c1.784,0,3.574-0.893,5.359-1.783l48.251-30.377h91.145l-64.333,64.332l-57.189,13.403c-5.359,0.896-8.04,6.254-7.152,10.726
		c0.896,4.471,4.472,7.149,8.936,7.149c0.896,0,1.784,0,1.784,0l26.803-6.257l-25.019,25.02c-3.574,3.578-3.574,9.832,0,13.405
		c1.784,1.787,4.471,2.683,6.255,2.683c1.784,0,4.471-0.896,6.254-2.683l26.806-24.122l-6.254,26.805
		c-0.897,5.357,1.784,9.827,7.147,10.725c0.897,0,1.785,0,1.785,0c4.47,0,8.039-2.68,8.935-7.15l12.51-55.398l65.229-64.332v91.142
		l-30.381,48.252c-2.677,4.469-1.784,9.83,2.681,12.51c1.784,0.896,3.574,1.783,5.359,1.783c2.679,0,6.254-1.783,8.04-4.468
		l15.188-23.233v35.741c0,5.362,4.471,8.937,8.936,8.937c4.47,0,8.935-4.471,8.935-8.937v-35.741l15.189,23.233
		c1.784,2.68,4.47,4.468,8.039,4.468c1.785,0,3.577-0.891,5.359-1.783c4.472-2.68,5.36-8.937,2.681-12.51l-32.169-48.252V712.59
		l64.332,64.332L57.54,832.32c0.898,4.471,4.472,7.15,8.936,7.15c0.896,0,1.786,0,1.786,0c5.359-0.895,8.037-6.257,7.15-10.725
		l-5.362-26.805l25.019,25.02c1.786,1.785,4.472,2.68,6.255,2.68c1.785,0,4.472-0.895,6.255-2.68c3.578-3.574,3.578-9.83,0-13.404
		l-25.02-25.019l26.805,6.253c0.896,0,1.786,0,1.786,0c4.471,0,8.04-2.68,8.933-7.149c0.898-5.36-1.783-9.831-7.149-10.726
		l-55.387-12.511l-64.33-64.332h91.158l48.253,30.377c1.786,0.896,3.578,1.787,5.361,1.787c2.68,0,6.255-1.787,8.04-4.473
		c2.681-4.468,1.784-9.827-2.679-12.51l-23.234-15.189h35.742c5.361,0,8.935-4.469,8.935-8.933
		C164.802,686.66,161.23,680.405,156.76,680.405z"/>
</g>
</svg>
