<?xml version="1.0" encoding="utf-8"?>
<!-- Generator: Adobe Illustrator 16.0.0, SVG Export Plug-In . SVG Version: 6.00 Build 0)  -->
<!DOCTYPE svg PUBLIC "-//W3C//DTD SVG 1.1//EN" "http://www.w3.org/Graphics/SVG/1.1/DTD/svg11.dtd">
<svg version="1.1" id="Layer_1" xmlns="http://www.w3.org/2000/svg" xmlns:xlink="http://www.w3.org/1999/xlink" x="0px" y="0px"
	 width="538.582px" height="538.582px" viewBox="-297.5 420.5 538.582 538.582"
	 enable-background="new -297.5 420.5 538.582 538.582" xml:space="preserve">
<g>
	<g>
		<path fill="#F3E59A" d="M102.4,685.149c-49.622,0-94.929-29.145-115.783-75.044c-14.383-31.335-15.825-66.305-4.312-99.093
			c11.504-32.788,35.236-58.287,66.166-72.859c12.944-6.556,27.326-10.2,41.707-11.656c2.881,0,6.472,1.456,7.193,4.37
			c1.434,2.915,0.722,6.558-1.435,8.746c-33.801,34.247-43.146,85.975-23.012,129.691c18.7,40.074,58.97,66.305,102.116,66.305
			c3.6,0,7.191,0,10.792-0.729c2.88,0,6.469,1.451,7.189,4.367c1.437,2.917,0.724,6.555-1.432,8.746
			c-10.07,10.201-22.296,18.944-35.239,24.774C139.079,680.776,121.099,685.149,102.4,685.149z"/>
	</g>
	<g>
		<path fill="#2C3E50" d="M131.884,681.588c-3.72,0-6.69-2.229-7.436-5.949c-0.746-4.464,1.485-8.185,5.956-8.93
			c8.182-1.483,16.364-4.46,23.801-8.187c5.206-2.229,10.413-5.204,15.619-8.927c-46.857-3.723-88.506-31.983-108.588-74.375
			c-20.08-43.137-14.874-92.967,11.895-130.9c-5.949,1.485-11.156,3.72-16.363,5.949c-32.72,15.619-55.782,44.626-63.962,79.581
			c-0.743,4.461-5.206,6.693-8.924,5.95c-4.463-0.743-6.695-5.206-5.957-8.928c8.929-40.163,34.958-72.885,72.148-90.736
			c13.388-5.949,27.514-10.413,42.395-11.9c2.975,0,6.689,1.487,7.438,4.463c1.483,2.976,0.743,6.693-1.486,8.926
			c-34.958,34.214-43.882,86.278-23.801,130.159c20.824,43.881,66.938,70.653,115.285,65.449c2.978,0,6.69,1.484,7.433,4.46
			c1.486,2.978,0.752,6.69-1.483,8.928c-10.413,10.413-23.057,18.6-36.446,25.287C150.478,675.636,140.815,680.097,131.884,681.588
			C131.594,681.583,131.884,681.588,131.884,681.588z"/>
	</g>
</g>
<path fill="#F2E085" d="M-116.869,770.875c-4.214,0.699-7.029,4.194-6.322,8.385l8.435,53.783c0,2.794,2.704,2.424,5.199,3.241
	l33.736,13.973l-10.824,89.655c-0.702,3.492,1.403,6.281,4.218,7.683c0.703,0.697,2.106,0.697,2.811,0.697
	c2.812,0,4.921-0.697,6.322-2.789L4.018,842.825c2.108-2.794,2.108-6.983-0.703-9.778l-34.441-32.83l5.625-20.26
	c1.403-4.188-0.707-8.38-4.922-9.079L-116.869,770.875z"/>
<g>
	<path fill="#ECF0F1" d="M-192.245,643.878c-29.847,0-54.19,24.426-54.19,54.361c0,29.939,24.343,54.361,54.19,54.361H43.366
		c29.843,0,54.19-24.422,54.19-54.361c0-29.936-24.347-54.361-54.19-54.361c-3.143,0-6.284,0-9.424,0.788
		c-2.359,0-4.712,0-6.286-1.575c-1.569-1.575-3.144-3.15-3.144-5.514c-7.064-48.847-49.481-85.875-98.958-85.875
		c-49.48,0-91.886,37.029-98.954,85.875c0,2.363-1.573,3.938-3.146,5.514c-1.57,1.578-3.93,1.578-6.283,1.578
		C-186.747,643.878-189.888,643.878-192.245,643.878z"/>
	<g>
		<g>
			<path fill="#2C3E50" d="M37.339,762.573h-223.126c-37.192,0-66.938-29.751-66.938-66.938c0-37.93,31.983-69.168,70.658-66.938
				c11.157-49.831,55.782-87.018,107.843-87.018c52.06,0,96.687,36.445,107.842,87.018c38.676-2.23,70.659,29.007,70.659,66.938
				C104.279,732.822,74.526,762.573,37.339,762.573z M-185.788,644.314c-28.263,0-51.319,23.059-51.319,51.321
				c0,28.262,23.056,52.062,51.319,52.062H37.338c28.258,0,51.316-23.054,51.316-51.316c0-28.264-23.058-51.322-51.316-51.322
				c-2.977,0-5.955,0-8.928,0.745c-2.229,0-4.459,0-5.952-1.487c-1.485-1.487-2.975-2.975-2.975-5.208
				c-6.691-46.112-46.855-81.068-93.714-81.068c-46.859,0-87.018,34.956-93.715,81.068c0,2.233-1.484,3.719-2.976,5.208
				c-1.483,1.487-3.72,1.487-5.952,1.487C-179.837,644.314-182.813,644.314-185.788,644.314z"/>
		</g>
		<g>
			<path fill="#2C3E50" d="M-80.177,951.904c-0.745,0-2.231,0-2.976-0.749c-2.976-1.484-5.207-4.459-4.462-8.183l10.413-92.967
				l-35.695-14.871c-2.231-0.746-4.462-2.977-4.462-5.951l-8.73-49.268c-0.746-4.46,2.231-8.186,6.691-8.929
				c4.458-0.744,8.182,2.232,8.928,6.691l7.245,44.806l37.191,15.617c2.978,1.486,5.208,4.462,4.462,8.183l-8.186,70.658
				l61.733-81.812l-34.956-33.466c-2.232-2.231-2.976-5.208-2.232-7.437l4.502-17.912c0.749-4.461,5.206-6.689,9.669-5.205
				c4.462,0.744,6.692,5.205,5.207,9.664l-3.02,13.453l36.442,34.957c2.975,2.975,2.975,7.438,0.748,10.412l-82.556,109.332
				C-75.713,950.415-77.946,951.904-80.177,951.904z"/>
		</g>
	</g>
</g>
</svg>
