<?xml version="1.0" encoding="utf-8"?>
<!-- Generator: Adobe Illustrator 16.0.0, SVG Export Plug-In . SVG Version: 6.00 Build 0)  -->
<!DOCTYPE svg PUBLIC "-//W3C//DTD SVG 1.1//EN" "http://www.w3.org/Graphics/SVG/1.1/DTD/svg11.dtd">
<svg version="1.1" id="Layer_1" xmlns="http://www.w3.org/2000/svg" xmlns:xlink="http://www.w3.org/1999/xlink" x="0px" y="0px"
	 width="538.582px" height="538.582px" viewBox="-297.5 420.5 538.582 538.582"
	 enable-background="new -297.5 420.5 538.582 538.582" xml:space="preserve">
<g>
	<path fill="#ECF0F1" d="M-161.404,535.237c-33.918,0-61.587,27.761-61.587,61.782c0,34.027,27.668,61.783,61.587,61.783h267.772
		c33.917,0,61.587-27.756,61.587-61.783c0-34.021-27.67-61.782-61.587-61.782c-3.569,0-7.142,0-10.711,0.896
		c-2.678,0-5.354,0-7.144-1.788c-1.784-1.792-3.572-3.582-3.572-6.269c-8.029-55.515-56.233-97.598-112.463-97.598
		c-56.237,0-104.429,42.085-112.464,97.598c0,2.687-1.785,4.477-3.572,6.269c-1.783,1.791-4.468,1.791-7.143,1.791
		C-155.156,535.237-158.726,535.237-161.404,535.237z"/>
	<g>
		<g>
			<g>
				<path fill="#2C3E50" d="M-67.937,795.111c-0.852,0-2.536,0-3.382-0.849c-4.231-1.689-6.77-6.763-5.071-11.834l33.812-81.989
					c1.69-4.231,6.771-6.765,11.834-5.071c4.231,1.688,6.771,6.765,5.071,11.834l-33.811,81.993
					C-61.177,792.579-64.558,795.111-67.937,795.111z"/>
			</g>
			<g>
				<path fill="#2C3E50" d="M58.01,765.527c-0.851,0-2.535,0-3.38-0.852c-4.231-1.686-6.767-6.761-5.073-11.834l21.979-52.402
					c1.689-4.231,6.767-6.766,11.834-5.072c4.229,1.688,6.767,6.766,5.07,11.834l-22.822,52.408
					C64.772,762.99,61.391,765.527,58.01,765.527z"/>
			</g>
			<g>
				<path fill="#2C3E50" d="M-189.659,815.401c-0.847,0-2.531,0-3.383-0.846c-4.225-1.689-6.762-6.766-5.064-11.834l20.282-49.025
					c1.689-4.23,6.767-6.767,11.837-5.071c4.229,1.688,6.764,6.766,5.067,11.834l-20.287,49.023
					C-182.896,813.709-186.277,815.401-189.659,815.401z"/>
			</g>
			<g>
				<path fill="#2C3E50" d="M-154.156,729.179c-0.853,0-2.536,0-3.389-0.845c-4.227-1.69-6.761-6.766-5.064-11.834l6.763-16.062
					c1.69-4.231,6.763-6.766,11.834-5.07c4.228,1.687,6.763,6.762,5.071,11.834l-6.77,16.061
					C-147.394,726.644-150.775,729.179-154.156,729.179z"/>
			</g>
			<g>
				<path fill="#2C3E50" d="M98.58,672.545h-253.583c-42.264,0-76.074-33.812-76.074-76.073c0-43.109,36.352-78.611,80.307-76.074
					c12.68-56.635,63.396-98.897,122.56-98.897c59.166,0,109.894,41.418,122.565,98.897c1.689,0,3.381,0,4.227,0
					c42.269,0,76.077,33.812,76.077,76.074C174.657,638.735,140.845,672.545,98.58,672.545z M-155.003,538.148
					c-32.121,0-58.323,26.205-58.323,58.325c0,32.121,26.202,58.323,58.323,58.323H98.58c32.122,0,58.324-26.202,58.324-58.323
					c0-32.12-26.203-58.325-58.324-58.325c-3.38,0-6.761,0-10.142,0.846c-2.538,0-5.072,0-6.764-1.688
					c-1.689-1.69-3.389-3.384-3.389-5.917c-7.602-52.406-53.251-92.138-106.504-92.138s-98.895,39.73-106.505,92.138
					c0,2.533-1.69,4.227-3.382,5.917c-1.69,1.688-4.231,1.688-6.767,1.688C-149.086,538.148-152.467,538.148-155.003,538.148z"/>
			</g>
		</g>
		<path fill="#2C3E50" d="M53.861,846.601H21.735l22.822-22.822c3.388-3.381,3.388-9.299,0-12.68c-3.382-3.384-9.299-3.384-12.681,0
			L9.054,833.921V801.8c0-5.07-4.228-8.45-8.453-8.45c-4.227,0-8.451,4.227-8.451,8.45v32.121l-22.818-22.822
			c-3.382-3.384-9.305-3.384-12.686,0c-3.382,3.381-3.382,9.299,0,12.68l22.822,22.822h-32.12c-5.073,0-8.454,4.227-8.454,8.45
			c0,4.229,4.231,8.454,8.454,8.454h32.12l-22.822,22.819c-3.382,3.383-3.382,9.302,0,12.683c1.69,1.686,4.231,2.534,5.918,2.534
			c1.689,0,4.231-0.849,5.917-2.534l22.821-22.819v32.115c0,5.072,4.231,8.453,8.453,8.453c4.227,0,8.451-4.229,8.451-8.453v-32.115
			l22.824,22.819c1.686,1.686,4.227,2.534,5.917,2.534c1.686,0,4.227-0.849,5.917-2.534c3.38-3.381,3.38-9.3,0-12.683l-20.288-21.98
			h32.122c5.064,0,8.452-4.231,8.452-8.451C63.157,851.671,58.927,846.601,53.861,846.601z"/>
		<path fill="#2C3E50" d="M-116.046,882.103h-32.118l22.813-22.822c3.388-3.38,3.388-9.299,0-12.68
			c-3.381-3.384-9.298-3.384-12.68,0l-22.822,22.819v-32.118c0-5.07-4.227-8.45-8.445-8.45c-4.231,0-8.452,4.229-8.452,8.45v32.118
			l-22.822-21.98c-3.382-3.381-9.299-3.381-12.68,0c-3.382,3.383-3.382,9.301,0,12.685l22.814,22.819h-32.113
			c-5.071,0-8.452,4.229-8.452,8.453c0,4.227,4.227,8.45,8.452,8.45h32.113l-22.814,22.816c-3.382,3.384-3.382,9.3,0,12.683
			c1.687,1.689,4.227,2.535,5.917,2.535c1.687,0,4.227-0.849,5.917-2.535l22.814-22.819v32.122c0,5.069,4.231,8.453,8.453,8.453
			c4.231,0,8.454-4.232,8.454-8.453v-32.122l22.822,22.819c1.687,1.689,4.227,2.535,5.917,2.535c1.687,0,4.227-0.849,5.917-2.535
			c3.381-3.383,3.381-9.299,0-12.683l-22.822-22.816h33.813c5.065,0,8.446-4.229,8.446-8.45
			C-107.593,887.173-110.974,882.103-116.046,882.103z"/>
	</g>
</g>
</svg>
