<?xml version="1.0" encoding="utf-8"?>
<!-- Generator: Adobe Illustrator 16.0.0, SVG Export Plug-In . SVG Version: 6.00 Build 0)  -->
<!DOCTYPE svg PUBLIC "-//W3C//DTD SVG 1.1//EN" "http://www.w3.org/Graphics/SVG/1.1/DTD/svg11.dtd">
<svg version="1.1" id="Layer_1" xmlns="http://www.w3.org/2000/svg" xmlns:xlink="http://www.w3.org/1999/xlink" x="0px" y="0px"
	 width="538.582px" height="538.582px" viewBox="-297.5 363.808 538.582 538.582"
	 enable-background="new -297.5 363.808 538.582 538.582" xml:space="preserve">
<g>
	<path fill="#ECF0F1" d="M-69.487,519.793c-30.822,0-55.964,25.148-55.964,55.97c0,30.822,25.142,55.967,55.964,55.967h243.339
		c30.824,0,55.969-25.145,55.969-55.967c0-30.821-25.146-55.97-55.969-55.97c-3.243,0-6.489,0-9.732,0.812
		c-2.432,0-4.869,0-6.492-1.62c-1.62-1.623-3.246-3.246-3.246-5.678c-7.296-50.289-51.103-88.413-102.198-88.413
		c-51.105,0-94.902,38.124-102.203,88.413c0,2.433-1.624,4.055-3.247,5.678c-1.623,1.622-4.056,1.622-6.489,1.622
		C-63.808,519.793-67.054,519.793-69.487,519.793z"/>
	<g>
		<path fill="#F2E085" d="M9.078,655.692c-4.564,0.761-7.61,4.569-6.844,9.135l9.133,58.596c0,3.044,2.282,5.326,4.564,6.089
			l36.526,15.219l-10.654,95.125c-0.761,3.807,1.518,6.848,4.567,8.369c0.759,0.763,2.28,0.763,3.043,0.763
			c3.044,0,5.326-0.763,6.844-3.038l83.708-111.87c2.285-3.043,2.285-7.606-0.76-10.653l-37.292-35.769l6.092-22.071
			c1.518-4.562-0.764-9.13-5.328-9.891L9.078,655.692z"/>
		<g>
			<path fill="#2C3E50" d="M170.413,642.991H-58.648c-38.054,0-68.489-30.44-68.489-68.491c0-38.049,30.44-68.488,68.489-68.488
				c1.518,0,2.281,0,3.807,0c11.418-51.747,57.835-89.034,110.341-89.034c52.508,0,98.932,37.287,110.345,89.034
				c1.518,0,3.043,0,3.803,0c38.054,0,68.491,30.441,68.491,68.488C238.14,612.551,207.701,642.991,170.413,642.991z
				 M-58.648,521.23c-28.918,0-52.51,23.593-52.51,52.508c0,28.918,23.591,52.51,52.51,52.51h228.296
				c28.918,0,52.511-23.591,52.511-52.51c0-28.918-23.592-52.508-52.511-52.508c-3.043,0-6.087,0-9.131,0.762
				c-2.282,0-4.567,0-6.09-1.521c-1.522-1.522-3.049-3.044-3.049-5.327c-6.844-47.181-47.941-82.95-95.883-82.95
				s-89.035,35.769-95.886,82.95c0,2.283-1.521,3.805-3.046,5.327c-1.52,1.521-3.808,1.521-6.091,1.521
				C-52.562,521.992-55.605,521.23-58.648,521.23z"/>
		</g>
		<g>
			<path fill="#2C3E50" d="M49.414,849.22c-0.764,0-2.285,0-3.044-0.762c-3.048-1.521-5.328-4.563-4.566-8.369l10.654-95.124
				l-36.526-15.221c-2.282-0.762-4.564-3.044-4.564-6.088l-9.133-58.596c-0.767-4.566,2.279-8.377,6.844-9.136
				c4.564-0.765,8.372,2.282,9.136,6.846l8.372,54.032l38.054,15.982c3.043,1.518,5.326,4.563,4.562,8.369l-8.372,72.299
				l63.16-83.707l-35.767-34.244c-2.285-2.282-3.046-5.325-2.285-7.61l6.847-26.634c0.764-4.566,5.326-6.847,9.892-5.328
				c4.564,0.762,6.847,5.328,5.329,9.89l-6.092,22.072l37.292,35.768c3.045,3.048,3.045,7.61,0.76,10.653L56.256,846.184
				C54.74,848.458,52.457,849.22,49.414,849.22z"/>
		</g>
		<g>
			<path fill="#2C3E50" d="M-133.988,504.49h-84.468c-4.564,0-7.608-3.807-7.608-7.61c0-3.806,3.808-7.61,7.608-7.61h84.468
				c4.564,0,7.61,3.807,7.61,7.61S-129.421,504.49-133.988,504.49z"/>
		</g>
		<g>
			<path fill="#2C3E50" d="M-176.603,573.74h-110.345c-4.565,0-7.609-3.806-7.609-7.61c0-3.807,3.808-7.61,7.609-7.61h111.104
				c4.564,0,7.608,3.805,7.608,7.61C-168.233,569.935-172.038,573.74-176.603,573.74z"/>
		</g>
		<g>
			<path fill="#2C3E50" d="M-144.642,642.229h-95.121c-4.565,0-7.609-3.805-7.609-7.61c0-3.804,3.808-7.61,7.609-7.61h95.121
				c4.564,0,7.61,3.805,7.61,7.61C-137.031,638.427-140.076,642.229-144.642,642.229z"/>
		</g>
	</g>
</g>
</svg>
