<?xml version="1.0" encoding="utf-8"?>
<!-- Generator: Adobe Illustrator 16.0.0, SVG Export Plug-In . SVG Version: 6.00 Build 0)  -->
<!DOCTYPE svg PUBLIC "-//W3C//DTD SVG 1.1//EN" "http://www.w3.org/Graphics/SVG/1.1/DTD/svg11.dtd">
<svg version="1.1" id="Layer_1" xmlns="http://www.w3.org/2000/svg" xmlns:xlink="http://www.w3.org/1999/xlink" x="0px" y="0px"
	 width="538.582px" height="538.582px" viewBox="-297.5 363.808 538.582 538.582"
	 enable-background="new -297.5 363.808 538.582 538.582" xml:space="preserve">
<g>
	<g>
		<path fill="#2C3E50" d="M30.476,581.472h-216.21c-5.294,0-8.824-4.417-8.824-8.823c0-4.416,4.416-8.826,8.824-8.826H30.478
			c70.601,0,108.549-13.24,108.549-37.951c0-5.291,4.416-8.82,8.824-8.82c4.416,0,8.824,4.414,8.824,8.82
			C157.558,562.937,114.315,581.472,30.476,581.472z"/>
	</g>
	<g>
		<path fill="#2C3E50" d="M214.039,696.197c-5.294,0-8.824-4.414-8.824-8.825c0-15.002-22.063-41.479-104.135-41.479h-372.415
			c-5.294,0-8.826-4.414-8.826-8.824c0-4.411,4.416-8.824,8.826-8.824h372.412c116.488,0,122.666,49.42,122.666,60.009
			C223.744,692.668,219.332,696.197,214.039,696.197z"/>
	</g>
	<g>
		<path fill="#2C3E50" d="M55.186,749.146c-5.293,0-8.825-4.412-8.825-8.823c0-13.238-24.709-29.125-92.662-29.125h-189.735
			c-5.294,0-8.824-4.414-8.824-8.823c0-4.412,4.413-8.826,8.824-8.826h188.855c97.073,0,111.196,30.005,111.196,47.656
			C64.012,745.616,59.6,749.146,55.186,749.146z"/>
	</g>
</g>
</svg>
