<?xml version="1.0" encoding="utf-8"?>
<!-- Generator: Adobe Illustrator 16.0.0, SVG Export Plug-In . SVG Version: 6.00 Build 0)  -->
<!DOCTYPE svg PUBLIC "-//W3C//DTD SVG 1.1//EN" "http://www.w3.org/Graphics/SVG/1.1/DTD/svg11.dtd">
<svg version="1.1" id="Layer_1" xmlns="http://www.w3.org/2000/svg" xmlns:xlink="http://www.w3.org/1999/xlink" x="0px" y="0px"
	 width="538.582px" height="538.582px" viewBox="-297.5 420.5 538.582 538.582"
	 enable-background="new -297.5 420.5 538.582 538.582" xml:space="preserve">
<g>
	<path fill="#ECF0F1" d="M-65.91,595.839c-30.839,0-55.994,25.159-55.994,55.997c0,30.835,25.155,55.992,55.994,55.992h243.457
		c30.837,0,55.996-25.157,55.996-55.992c0-30.838-25.158-55.997-55.996-55.997c-3.247,0-6.493,0-9.739,0.812
		c-2.435,0-4.868,0-6.496-1.621c-1.62-1.624-3.249-3.247-3.249-5.684c-7.299-50.313-51.125-88.456-102.252-88.456
		c-51.125,0-94.945,38.143-102.252,88.456c0,2.437-1.623,4.06-3.248,5.684c-1.621,1.624-4.06,1.624-6.493,1.624
		C-60.229,595.839-63.476,595.839-65.91,595.839z"/>
	<g>
		<path fill="#2C3E50" d="M-133.823,578.007h-85.569c-4.626,0-7.709-3.854-7.709-7.707c0-3.854,3.858-7.707,7.709-7.707h85.568
			c4.625,0,7.708,3.853,7.708,7.707C-126.115,574.155-129.969,578.007-133.823,578.007z"/>
	</g>
	<g>
		<path fill="#2C3E50" d="M-176.993,647.39h-112.552c-4.623,0-7.707-3.855-7.707-7.71c0-3.857,3.858-7.709,7.707-7.709h112.552
			c4.624,0,7.708,3.856,7.708,7.709C-169.285,643.534-172.367,647.39-176.993,647.39z"/>
	</g>
	<g>
		<path fill="#2C3E50" d="M-144.615,716.769h-96.363c-4.624,0-7.707-3.854-7.707-7.706c0-3.855,3.859-7.71,7.707-7.71h96.363
			c4.625,0,7.708,3.859,7.708,7.71C-136.907,712.914-139.99,716.769-144.615,716.769z"/>
	</g>
	<g>
		<path fill="#2C3E50" d="M-5.854,890.995c-0.772,0-2.311,0-3.086-0.774c-3.856-1.538-6.167-6.167-4.621-10.793l11.564-28.518
			c1.539-3.857,6.169-6.17,10.792-4.627c3.858,1.541,6.169,6.175,4.625,10.793L1.853,885.6
			C0.313,888.683-2.77,890.995-5.854,890.995z"/>
	</g>
	<g>
		<path fill="#2C3E50" d="M19.586,829.324c-0.771,0-2.312,0-3.084-0.771c-3.858-1.54-6.171-6.171-4.624-10.792l30.838-74.777
			c1.539-3.86,6.17-6.17,10.792-4.627c3.857,1.543,6.17,6.172,4.623,10.793l-30.836,74.78
			C25.753,827.01,22.668,829.324,19.586,829.324z"/>
	</g>
	<g>
		<path fill="#2C3E50" d="M103.614,875.576c-0.771,0-2.313,0-3.083-0.771c-3.857-1.541-6.171-6.169-4.626-10.793l17.73-42.399
			c1.538-3.854,6.168-6.169,10.793-4.626c3.854,1.543,6.167,6.174,4.622,10.795l-18.502,43.171
			C109.782,874.035,106.697,875.576,103.614,875.576z"/>
	</g>
	<g>
		<path fill="#2C3E50" d="M134.448,802.344c-0.774,0-2.313,0-3.084-0.776c-3.856-1.538-6.169-6.166-4.625-10.793l20.045-47.791
			c1.541-3.857,6.169-6.17,10.793-4.627c3.856,1.543,6.169,6.172,4.625,10.793l-20.814,47.797
			C140.617,800.029,137.536,802.344,134.448,802.344z"/>
	</g>
	<g>
		<path fill="#2C3E50" d="M-91.424,847.826c-0.775,0-2.313,0-3.086-0.773c-3.857-1.538-6.169-6.169-4.624-10.793l18.502-44.708
			c1.538-3.857,6.167-6.17,10.793-4.627c3.856,1.541,6.167,6.175,4.621,10.793l-18.5,44.714
			C-85.257,846.281-88.341,847.826-91.424,847.826z"/>
	</g>
	<g>
		<path fill="#2C3E50" d="M-59.046,769.194c-0.775,0-2.313,0-3.086-0.773c-3.857-1.538-6.169-6.17-4.624-10.793l6.169-14.65
			c1.541-3.856,6.17-6.169,10.793-4.623c3.858,1.54,6.17,6.166,4.624,10.792l-6.169,14.65
			C-52.881,766.883-55.962,769.194-59.046,769.194z"/>
	</g>
	<g>
		<path fill="#2C3E50" d="M171.453,717.54h-231.27c-38.544,0-69.377-30.835-69.377-69.377c0-39.315,33.148-71.694,73.235-69.38
			c11.565-51.651,57.817-90.196,111.776-90.196c53.963,0,100.22,37.773,111.78,90.196c1.539,0,3.083,0,3.855,0
			c38.547,0,69.381,30.835,69.381,69.38C240.834,686.705,209.996,717.54,171.453,717.54z M-59.817,594.972
			c-29.292,0-53.188,23.899-53.188,53.189c0,29.294,23.896,53.191,53.188,53.191h231.27c29.293,0,53.192-23.897,53.192-53.191
			c0-29.29-23.898-53.189-53.192-53.189c-3.083,0-6.168,0-9.251,0.771c-2.313,0-4.625,0-6.17-1.538
			c-1.539-1.543-3.086-3.089-3.086-5.4c-6.933-47.792-48.568-84.027-97.134-84.027c-48.567,0-90.192,36.233-97.133,84.027
			c0,2.312-1.539,3.857-3.085,5.4c-1.538,1.538-3.856,1.538-6.168,1.538C-54.421,594.972-57.504,594.972-59.817,594.972z"/>
	</g>
</g>
</svg>
