<?xml version="1.0" encoding="utf-8"?>
<!-- Generator: Adobe Illustrator 16.0.0, SVG Export Plug-In . SVG Version: 6.00 Build 0)  -->
<!DOCTYPE svg PUBLIC "-//W3C//DTD SVG 1.1//EN" "http://www.w3.org/Graphics/SVG/1.1/DTD/svg11.dtd">
<svg version="1.1" id="Layer_1" xmlns="http://www.w3.org/2000/svg" xmlns:xlink="http://www.w3.org/1999/xlink" x="0px" y="0px"
	 width="538.582px" height="538.582px" viewBox="-297.5 420.5 538.582 538.582"
	 enable-background="new -297.5 420.5 538.582 538.582" xml:space="preserve">
<g>
	<path fill="#ECF0F1" d="M-69.903,678.62c-31.201,0-56.65,25.456-56.65,56.652c0,31.2,25.451,56.649,56.65,56.649h246.315
		c31.2,0,56.652-25.449,56.652-56.649c0-31.196-25.452-56.652-56.652-56.652c-3.284,0-6.568,0-9.851,0.822
		c-2.463,0-4.927,0-6.571-1.643c-1.641-1.643-3.284-3.284-3.284-5.747c-7.387-50.904-51.728-89.494-103.452-89.494
		c-51.727,0-96.06,38.59-103.451,89.494c0,2.462-1.642,4.105-3.287,5.747c-1.639,1.643-4.106,1.643-6.568,1.643
		C-64.154,678.62-67.438,678.62-69.903,678.62z"/>
	<g>
		<g>
			<path fill="#2C3E50" d="M-134.243,664.729h-85.598c-4.624,0-7.708-3.857-7.708-7.712c0-3.855,3.857-7.71,7.708-7.71h85.598
				c4.624,0,7.711,3.856,7.711,7.71C-126.532,660.871-129.615,664.729-134.243,664.729z"/>
		</g>
		<g>
			<path fill="#2C3E50" d="M-176.657,734.132h-112.586c-4.627,0-7.712-3.856-7.712-7.711c0-3.855,3.858-7.712,7.712-7.712h112.583
				c4.627,0,7.712,3.856,7.712,7.712C-168.948,730.275-172.801,734.132-176.657,734.132z"/>
		</g>
		<g>
			<path fill="#2C3E50" d="M-145.039,804.307h-96.394c-4.624,0-7.712-3.857-7.712-7.712s3.86-7.709,7.712-7.709h96.394
				c4.624,0,7.71,3.858,7.71,7.709C-137.329,800.449-140.412,804.307-145.039,804.307z"/>
		</g>
		<g>
			<path fill="#2C3E50" d="M171.133,804.307H-60.212c-38.561,0-69.402-30.846-69.402-69.402c0-38.561,30.847-69.402,69.402-69.402
				c1.54,0,2.314,0,3.859,0c11.566-51.668,57.835-90.224,111.814-90.224s100.251,37.788,111.816,90.224c1.539,0,3.084,0,3.856,0
				c38.559,0,69.404,30.847,69.404,69.402C240.537,773.461,208.92,804.307,171.133,804.307z M-60.985,681.692
				c-29.299,0-53.205,23.908-53.205,53.21c0,29.304,23.906,53.208,53.205,53.208h231.349c29.304,0,53.204-23.904,53.204-53.208
				c0-29.302-23.9-53.21-53.204-53.21c-3.084,0-6.173,0-9.256,0.772c-2.312,0-4.622,0-6.17-1.54
				c-1.542-1.541-3.084-3.084-3.084-5.396c-6.939-47.811-48.583-84.059-97.168-84.059c-48.582,0-90.223,36.246-97.166,84.059
				c0,2.312-1.54,3.855-3.084,5.396c-1.54,1.54-3.859,2.315-6.172,1.54C-54.814,681.692-57.898,681.692-60.985,681.692z"/>
		</g>
	</g>
</g>
</svg>
