<?xml version="1.0" encoding="utf-8"?>
<!-- Generator: Adobe Illustrator 16.0.0, SVG Export Plug-In . SVG Version: 6.00 Build 0)  -->
<!DOCTYPE svg PUBLIC "-//W3C//DTD SVG 1.1//EN" "http://www.w3.org/Graphics/SVG/1.1/DTD/svg11.dtd">
<svg version="1.1" id="Layer_1" xmlns="http://www.w3.org/2000/svg" xmlns:xlink="http://www.w3.org/1999/xlink" x="0px" y="0px"
	 width="538.582px" height="538.582px" viewBox="-297.5 420.5 538.582 538.582"
	 enable-background="new -297.5 420.5 538.582 538.582" xml:space="preserve">
<g>
	<path fill="#2C3E50" d="M219.416,510.999H86.945c-2.594,0-4.329,1.728-4.329,4.328s1.727,4.333,4.329,4.333h133.341
		c2.593,0,4.331-1.732,4.331-4.333S222.014,510.999,219.416,510.999z"/>
	<path fill="#2C3E50" d="M-23.881,510.999h-91.782c-2.598,0-4.331,1.728-4.331,4.328s1.727,4.333,4.331,4.333h90.911
		c2.598,0,4.334-1.732,4.334-4.333S-22.148,510.999-23.881,510.999z"/>
	<path fill="#2C3E50" d="M-248.993,515.325c0,2.597,1.73,4.334,4.331,4.334h89.176c2.596,0,4.333-1.731,4.333-4.334
		c0-2.602-1.731-4.329-4.333-4.329h-89.176C-247.263,510.999-248.993,512.727-248.993,515.325z"/>
	<path fill="#2C3E50" d="M134.565,554.287H-2.238c-2.595,0-4.332,1.729-4.332,4.332c0,2.598,1.731,4.331,4.332,4.331h136.802
		c2.598,0,4.332-1.73,4.332-4.331C138.894,556.02,137.162,554.287,134.565,554.287z"/>
	<path fill="#2C3E50" d="M-281.029,558.617c0,2.594,1.727,4.331,4.329,4.331h204.333c2.595,0,4.331-1.731,4.331-4.331
		c0-2.601-1.728-4.332-4.331-4.332h-204.336C-279.299,554.287-281.029,556.885-281.029,558.617z"/>
	<path fill="#2C3E50" d="M179.588,602.773c0-2.597-1.731-4.329-4.332-4.329H40.188c-2.595,0-4.332,1.727-4.332,4.329
		c0,2.602,1.731,4.333,4.332,4.333h135.068C176.99,607.105,179.588,605.371,179.588,602.773z"/>
	<path fill="#2C3E50" d="M-123.45,602.773c0,2.599,1.727,4.333,4.331,4.333H-4.832c2.595,0,4.329-1.731,4.329-4.333
		c0-2.603-1.729-4.329-4.329-4.329H-119.12C-120.853,598.446-123.45,600.174-123.45,602.773z"/>
	<path fill="#2C3E50" d="M-141.633,602.773c0-2.597-1.731-4.329-4.333-4.329h-69.263c-2.598,0-4.331,1.727-4.331,4.329
		c0,2.602,1.727,4.333,4.331,4.333h69.266C-143.365,607.105-141.633,605.371-141.633,602.773z"/>
	<path fill="#2C3E50" d="M219.416,641.734h-70.132c-2.598,0-4.332,1.73-4.332,4.329c0,2.602,1.729,4.334,4.332,4.334h70.132
		c2.598,0,4.333-1.731,4.333-4.334C223.742,643.471,222.014,641.734,219.416,641.734z"/>
	<path fill="#2C3E50" d="M46.252,646.065c0-2.597-1.731-4.331-4.333-4.331h-169.697c-2.598,0-4.331,1.73-4.331,4.331
		c0,2.6,1.727,4.332,4.331,4.332H41.923C44.52,650.395,46.252,648.66,46.252,646.065z"/>
	<path fill="#2C3E50" d="M-276.702,650.395h38.092c2.598,0,4.333-1.729,4.333-4.334c0-2.593-1.73-4.327-4.333-4.327h-38.092
		c-2.596,0-4.332,1.727-4.332,4.327C-281.029,648.66-279.299,650.395-276.702,650.395z"/>
	<path fill="#2C3E50" d="M93.006,694.552h77.059c2.593,0,4.329-1.729,4.329-4.332c0-2.597-1.73-4.332-4.329-4.332H93.006
		c-2.594,0-4.33,1.729-4.33,4.332C88.676,692.821,90.409,694.552,93.006,694.552z"/>
	<path fill="#2C3E50" d="M12.482,690.221c0-2.597-1.73-4.332-4.332-4.332h-133.338c-2.597,0-4.33,1.73-4.33,4.332
		c0,2.603,1.728,4.332,4.33,4.332H8.151C10.752,694.552,12.482,691.955,12.482,690.221z"/>
	<path fill="#2C3E50" d="M-251.591,685.893c-2.598,0-4.331,1.73-4.331,4.333c0,2.602,1.728,4.329,4.331,4.329h83.118
		c2.597,0,4.331-1.729,4.331-4.329c0-2.602-1.728-4.333-4.331-4.333H-251.591z"/>
	<path fill="#2C3E50" d="M219.416,729.184H107.725c-2.598,0-4.332,1.73-4.332,4.329c0,2.603,1.729,4.334,4.332,4.334h111.691
		c2.598,0,4.333-1.73,4.333-4.334C223.745,730.914,222.014,729.184,219.416,729.184z"/>
	<path fill="#2C3E50" d="M-71.501,737.843H27.2c2.595,0,4.333-1.73,4.333-4.334c0-2.598-1.731-4.329-4.333-4.329h-98.701
		c-2.598,0-4.333,1.727-4.333,4.329C-75.832,736.111-74.099,737.843-71.501,737.843z"/>
	<path fill="#2C3E50" d="M-121.718,733.512c0-2.594-1.727-4.329-4.331-4.329h-99.569c-2.598,0-4.333,1.729-4.333,4.329
		c0,2.602,1.73,4.334,4.333,4.334h99.569C-123.45,737.843-121.718,736.111-121.718,733.512z"/>
	<path fill="#2C3E50" d="M219.416,772.476H33.264c-2.598,0-4.332,1.73-4.332,4.334c0,2.594,1.729,4.329,4.332,4.329h187.019
		c2.594,0,4.331-1.73,4.331-4.329C224.61,774.207,222.014,772.476,219.416,772.476z"/>
	<path fill="#2C3E50" d="M1.228,776.807c0-2.6-1.731-4.334-4.333-4.334h-122.081c-2.597,0-4.33,1.73-4.33,4.334
		c0,2.594,1.728,4.329,4.33,4.329H-3.105C-0.503,781.135,1.228,779.403,1.228,776.807z"/>
	<path fill="#2C3E50" d="M-276.702,781.135h76.194c2.596,0,4.332-1.73,4.332-4.33c0-2.599-1.73-4.333-4.332-4.333h-76.194
		c-2.596,0-4.332,1.729-4.332,4.333C-281.029,779.403-279.299,781.135-276.702,781.135z"/>
	<path fill="#2C3E50" d="M219.416,816.634H107.725c-2.598,0-4.332,1.728-4.332,4.33c0,2.597,1.729,4.333,4.332,4.333h111.691
		c2.598,0,4.333-1.732,4.333-4.333C223.742,818.364,222.014,816.634,219.416,816.634z"/>
	<path fill="#2C3E50" d="M54.044,820.962c0-2.597-1.727-4.329-4.33-4.329h-120.35c-2.596,0-4.331,1.729-4.331,4.329
		c0,2.597,1.729,4.334,4.331,4.334h120.35C52.313,825.293,54.044,823.559,54.044,820.962z"/>
	<path fill="#2C3E50" d="M-132.973,816.634h-106.5c-2.598,0-4.331,1.728-4.331,4.33c0,2.597,1.727,4.333,4.331,4.333h106.5
		c2.594,0,4.329-1.732,4.329-4.333C-128.646,818.364-130.377,816.634-132.973,816.634z"/>
	<path fill="#2C3E50" d="M154.476,859.924H6.421c-2.598,0-4.332,1.729-4.332,4.332c0,2.597,1.729,4.332,4.332,4.332h148.055
		c2.598,0,4.332-1.73,4.332-4.332C158.808,861.653,157.076,859.924,154.476,859.924z"/>
	<path fill="#2C3E50" d="M-77.562,859.924h-32.034c-2.598,0-4.331,1.729-4.331,4.332c0,2.597,1.727,4.332,4.331,4.332h32.034
		c2.597,0,4.331-1.73,4.331-4.332C-73.231,861.653-74.966,859.924-77.562,859.924z"/>
	<path fill="#2C3E50" d="M-214.361,859.924h-62.338c-2.595,0-4.332,1.729-4.332,4.332c0,2.597,1.73,4.332,4.332,4.332h62.338
		c2.595,0,4.331-1.73,4.331-4.332C-210.033,861.655-211.763,859.924-214.361,859.924z"/>
</g>
</svg>
