<?xml version="1.0" encoding="utf-8"?>
<!-- Generator: Adobe Illustrator 16.0.0, SVG Export Plug-In . SVG Version: 6.00 Build 0)  -->
<!DOCTYPE svg PUBLIC "-//W3C//DTD SVG 1.1//EN" "http://www.w3.org/Graphics/SVG/1.1/DTD/svg11.dtd">
<svg version="1.1" id="Layer_1" xmlns="http://www.w3.org/2000/svg" xmlns:xlink="http://www.w3.org/1999/xlink" x="0px" y="0px"
	 width="708.66px" height="708.662px" viewBox="0 0 708.66 708.662" enable-background="new 0 0 708.66 708.662"
	 xml:space="preserve">
<g>
	<g>
		<path fill="#2C3E50" d="M517.115,260.937c27.835,0,50.366-22.555,50.366-50.373c0-27.835-22.555-50.385-50.366-50.385
			c-27.835,0-50.385,22.549-50.385,50.385C466.731,238.381,489.28,260.937,517.115,260.937z M628.574,255.876
			c-1.816,1.167-3.396,2.548-4.798,4.083c-9.917,8.417-42.086,33.663-56.302,36.241c-18.465,3.37-28.562,5.036-36.967,0
			c-7.396-4.429-50.056-32.389-60.034-38.919c-0.148-0.113-0.291-0.196-0.438-0.303c-1.06-0.703-1.655-1.089-1.655-1.089
			c-3.021-1.853-6.209-3.149-9.501-4.006c-13.483-4.471-29.692-4.078-46.86,2.018c-23.607,8.352-131.253,22.799-155.547,31.508
			c-9.44,1.977-17.219,9.436-19.037,19.496c-2.391,13.251,6.411,25.918,19.646,28.306c3.631,0.667,7.203,0.446,10.549-0.435
			c11.729-1.774,105.591-16.938,106.229-13.858c0.644,3.08-73.803,121.997-80.167,133.474c-8.369,15.12-6.688,16.774-30.216,8.375
			c-20.115-7.173-62.14-27.033-77.029-32.111c-3.154-1.464-6.626-2.312-10.321-2.312c-13.453,0-24.341,10.896-24.341,24.357
			c0,10.229,6.292,18.954,15.221,22.562c22.393,12.896,74.729,37.234,96.47,49.651c23.507,13.438,45.348,15.104,57.108-1.688
			c11.766-16.776,33.875-55.472,36.938-55.434s20.156,52.075,15.114,60.47c-4.619,7.717-41.235,89.417-45.854,107.877
			c-1.271,2.979-1.993,6.244-1.993,9.69c0,13.453,10.91,24.342,24.354,24.342c8.894,0,16.645-4.786,20.913-11.883
			c8.202-9.535,14.923-24.182,26.12-44.365c16.787-30.229,28.55-50.392,35.271-63.832c6.709-13.418,11.751-8.37,0-47.003
			c-11.763-38.641-25.188-55.427-11.763-77.269c13.453-21.843,33.604-48.693,33.604-48.693s39.101-44.882,40.305-45.36
			s16.014,14.864,41.41,17.239c5.392,0.5,11.202,0.441,17.38-0.44c28.181-4.03,90.207-37.425,102.693-49.854
			c11.174-7.304,14.383-22.258,7.155-33.508C654.97,251.895,639.898,248.608,628.574,255.876z"/>
	</g>
</g>
<g>
	<path fill="#ECF0F1" d="M327.552,127.425c-4.712-13.261-26.91-36.556-27.871-37.699L266.113,56.96
		c-1.836-1.872-4.457-2.923-7.519-2.627c-7.353,0.475-19.943-4.56-19.943-4.56c-3.407-1.366-13.288-6.075-16.783-10.127
		c-1.662-2.182-4.282-3.23-7.434-3.352l-51.35-0.807c-1.662,0.096-36.734,0.103-52.396,5.6c-1.573,0.507-2.892,2.258-2.801,3.812
		l-3.812,57.271c-0.177,1.447,0.785,2.592,2.271,2.806c2.188,0.115,8.655,1.186,10.489,4.197c0.699,1.039,0.699,2.176,0.352,3.933
		L42.037,241.234c-0.521,0.926-0.612,1.65-0.438,2.477c0.174,0.831,0.521,1.349,1.312,1.664l138.771,55.493
		c0.782,0.313,1.482,0.214,2.359-0.195c0.874-0.408,1.663-1.232,2.017-1.848l70.956-129.808c0.962-1.133,2.272-1.746,3.852-2.253
		c4.375-0.907,9.183,2.534,10.492,4.196c0.874,0.729,2.536,0.636,4.021-0.289l50.502-38.6
		C327.281,130.735,328.073,128.773,327.552,127.425z"/>
	<path fill="#2C3E50" d="M327.552,127.425c-4.712-13.261-26.91-36.556-27.871-37.699L266.113,56.96
		c-1.836-1.872-4.457-2.923-7.519-2.627c-7.353,0.475-19.943-4.56-19.943-4.56c-3.407-1.366-13.288-6.075-16.783-10.127
		c-1.662-2.182-4.282-3.23-7.434-3.352l-51.35-0.807c-1.662,0.096-36.734,0.103-52.396,5.6c-1.573,0.507-2.892,2.258-2.801,3.812
		l-3.812,57.271c-0.177,1.447,0.785,2.592,2.271,2.806c2.188,0.115,8.655,1.186,10.489,4.197c0.699,1.039,0.699,2.176,0.352,3.933
		L42.037,241.234c-0.521,0.926-0.612,1.65-0.438,2.477c0.174,0.831,0.521,1.349,1.312,1.664l138.771,55.493
		c0.782,0.313,1.482,0.214,2.359-0.195c0.874-0.408,1.663-1.232,2.017-1.848l70.956-129.808c0.962-1.133,2.272-1.746,3.852-2.253
		c4.375-0.907,9.183,2.534,10.492,4.196c0.874,0.729,2.536,0.636,4.021-0.289l50.502-38.6
		C327.281,130.735,328.073,128.773,327.552,127.425z M221.483,80.082c-10.492-4.195-12.321-12.895-12.054-19.614
		c0.182-7.137,2.812-12.913,2.981-13.223c0.7-1.238,1.75-1.954,2.799-1.535c0,0,0,0,0.268,0.104c0.786,0.314,1.224,1.248,0.784,2.59
		c0,0-2.452,5.468-2.636,11.465c-0.27,7.858,3.312,13.462,10.396,16.296c7.083,2.833,14.52,1.632,21.604-3.498
		c5.432-3.899,8.753-8.638,8.934-8.947c0.521-0.928,1.837-1.541,2.888-1.122c0,0,0,0,0.264,0.104
		c1.053,0.419,0.872,1.865,0.352,2.793c-0.181,0.312-3.854,5.667-10.332,10.283C241.167,79.983,231.977,84.279,221.483,80.082z
		 M249.577,60.588L249.577,60.588L249.577,60.588c0,0-2.803,3.811-6.74,6.788c-5.426,3.9-10.321,4.596-15.567,2.497
		c-5.247-2.098-7.695-5.729-7.689-11.417c0.004-4.551,2.021-8.676,2.021-8.676l0,0c5.596,3.755,12.938,6.691,13.201,6.797
		C235.498,56.478,242.58,59.31,249.577,60.588z M110.468,98.277l3.454-52.104c15.484-4.05,47.15-4.285,47.411-4.18l47.062,0.99
		c-0.787,0.823-1.312,1.75-1.839,2.677c-0.354,0.619-3.417,7.739-3.601,16.012c-0.09,1.861-0.003,3.413,0.344,5.069
		c-36.474-2.068-73.146,26.888-83.125,35.417C117.464,99.557,113.18,98.603,110.468,98.277z M49.21,239.928l73.578-125.346
		c0.175-0.309,0.354-0.617,0.524-0.926c0.878-2.684,0.879-4.962,0.44-7.032c9.19-7.704,46.305-36.866,81.024-32.843
		c0.264,0.104,0.438-0.205,0.699-0.098c2.354,5.492,6.642,9.861,12.938,12.377c6.033,2.415,12.599,2.762,19.155,0.832l0,0
		c26.399,20.42,22.079,64.971,20.674,74.271c-1.751,0.818-3.59,2.359-5.165,4.004c-0.176,0.309-0.352,0.619-0.522,0.928
		L183.17,293.118l-133.783-53.5L49.21,239.928z M274.686,163.944c-2.009-1.561-5.856-3.858-10.667-3.886
		c1.495-11.162,5.377-53.231-19.358-76.021c1.75-0.816,3.414-2.048,5.338-3.175c7.526-5.336,11.904-11.929,12.521-12.444
		c0.521-0.927,1.052-1.854,1.312-2.887l30.771,29.751c0.261,0.104,20.011,20.902,26.038,33.553L274.686,163.944z"/>
</g>
</svg>
