<?xml version="1.0" encoding="utf-8"?>
<!-- Generator: Adobe Illustrator 16.0.0, SVG Export Plug-In . SVG Version: 6.00 Build 0)  -->
<!DOCTYPE svg PUBLIC "-//W3C//DTD SVG 1.1//EN" "http://www.w3.org/Graphics/SVG/1.1/DTD/svg11.dtd">
<svg version="1.1" id="Layer_1" xmlns="http://www.w3.org/2000/svg" xmlns:xlink="http://www.w3.org/1999/xlink" x="0px" y="0px"
	 width="708.662px" height="708.662px" viewBox="-297.5 0 708.662 708.662" enable-background="new -297.5 0 708.662 708.662"
	 xml:space="preserve">
<g>
	<path fill="#ECF0F1" stroke="#000000" stroke-miterlimit="10" d="M-281.773,374.384c-3.646,5.105-5.104,11.666-4.375,18.23
		l13.125,138.539c0.729,4.375,2.188,9.479,5.834,12.395l5.833,29.896c0.729,3.646,4.375,6.562,8.021,5.834
		c0,0,34.271-4.377,63.438,0c0.729,0,0.729,0,1.458,0c3.646,0,6.562-2.188,7.291-5.834l6.562-27.709
		c4.375-5.104,7.291-12.395,7.291-18.957l2.917-161.873l21.875,2.916c-0.729,31.354-2.917,164.789,6.562,244.998
		c1.458,10.938,2.916,21.146,5.104,29.896c0.729,3.645,4.375,5.832,8.021,5.832c0.729,0,79.479-7.291,180.103-7.291
		c99.895,0,179.373,7.291,180.104,7.291h0.729c3.646,0,6.562-2.188,7.292-5.832c2.188-8.75,3.646-18.959,5.104-29.896
		c10.208-80.938,7.291-213.645,6.562-244.998l21.146-2.916l2.918,161.873c0,7.291,2.916,13.854,7.291,19.688l6.562,27.707
		c0.729,3.646,3.646,5.834,7.292,5.834c0.729,0,0.729,0,1.458,0c29.166-4.373,62.708,0,63.436,0c3.646,0.73,7.291-2.188,8.021-5.834
		l5.832-29.895c2.919-3.646,5.104-8.021,5.835-12.396l13.125-138.541c-0.003-7.291-1.462-13.123-5.107-18.957l-98.434-159.685
		c-2.188-3.646-5.834-6.562-9.479-8.75l-40.104-18.23l-74.375-33.541c5.104-22.604-6.562-38.645-16.041-45.938
		c0.729-24.062-15.312-35.729-24.062-38.646c-1.458-0.729-2.916-1.457-4.374-2.186c-18.229-5.105-43.021-7.293-68.541-7.293
		c-27.708,0-53.958,2.916-72.917,8.75c-1.458,0.729-3.646,1.459-4.375,2.188c-0.729,0-1.458,0-1.458,0
		c-8.75,3.646-23.333,15.312-23.333,35.729c-9.479,5.834-19.688,20.418-15.312,45.938l-75.833,33.543l-40.104,18.229
		c-4.375,2.188-7.292,5.104-9.479,8.75"/>
</g>
<g>
	<path fill="#2C3E50" d="M394.886,374.384l-98.436-159.686c-2.188-3.646-5.834-6.562-9.479-8.75l-40.104-18.23l0,0l-74.375-33.541
		c5.104-22.604-6.562-38.645-16.041-45.938c0.729-24.062-15.312-35.729-24.062-38.646c-1.458-0.729-2.916-1.457-4.374-2.186
		c-18.229-5.105-43.021-7.293-68.541-7.293c-27.708,0-53.958,2.916-72.917,8.75c-1.458,0.729-3.646,1.459-4.375,2.188
		c-0.729,0-1.458,0-1.458,0c-8.75,3.646-23.333,15.312-23.333,35.729c-9.479,5.834-19.688,20.418-15.312,45.938l-75.833,33.543l0,0
		l0,0l-40.104,18.229c-4.375,2.188-7.292,5.104-9.479,8.75l-98.438,161.145c-3.646,5.104-5.104,11.666-4.375,18.229l13.125,138.539
		c0.729,4.375,2.188,9.48,5.834,12.396l5.833,29.896c0.729,3.645,4.375,6.561,8.021,5.834c0,0,34.271-4.377,63.438,0
		c0.729,0,0.729,0,1.458,0c3.646,0,6.562-2.189,7.291-5.834l6.562-27.709l0,0l0,0c4.375-5.105,7.291-12.396,7.291-18.957
		l2.917-161.873l21.875,2.916c-0.729,31.354-2.917,164.789,6.562,244.998l0,0l0,0c1.458,10.938,2.916,21.145,5.104,29.895
		c0.729,3.646,4.375,5.832,8.021,5.832c0.729,0,79.479-7.291,180.103-7.291c99.895,0,179.373,7.291,180.104,7.291h0.729
		c3.646,0,6.562-2.188,7.292-5.832c2.188-8.75,3.646-18.959,5.104-29.895l0,0l0,0c10.208-80.939,7.291-213.646,6.562-244.998
		l21.146-2.916l2.918,161.873c0,7.291,2.916,13.854,7.291,19.688l6.562,27.707c0.729,3.646,3.646,5.834,7.292,5.834
		c0.729,0,0.729,0,1.458,0c29.166-4.373,62.708,0,63.436,0c3.646,0.729,7.291-2.188,8.021-5.834l5.832-29.896
		c2.919-3.645,5.104-8.02,5.835-12.395l13.125-138.541C399.991,386.05,398.532,380.218,394.886,374.384z M144.786,118.448
		c0.729,0.729,19.688,11.668,11.666,35.729c-1.458,1.459-2.188,2.189-2.917,2.918c-3.646,3.646-5.104,5.104-10.209,6.562
		c-3.646,0.729-6.562,5.104-5.104,8.75c0.729,3.645,3.646,5.834,7.292,5.834c0.729,0,1.458,0,2.188,0
		c8.75-2.189,12.396-5.834,16.771-10.209l0.729-0.729l69.271,30.625c-6.562,16.771-22.604,62.707-17.499,109.373
		c3.646,29.168,10.208,48.125,20.417,56.146c1.458,0.729,2.916,2.188,3.646,2.188c0.729,27.707,2.917,156.771-5.833,237.705
		c-21.146-1.457-86.041-6.561-166.248-7.291V238.76h10.209c2.188,0,4.374-0.729,5.832-2.918c1.458-1.457,2.188-3.645,1.458-5.832
		l-6.562-33.543c-0.729-5.832-4.375-10.207-9.479-13.125c18.958-39.375,50.312-78.748,63.438-91.145
		c0.729-0.73,1.459-1.457,2.188-2.188c3.646,4.375,6.562,10.938,5.104,21.146C141.139,114.803,142.597,116.991,144.786,118.448z
		 M58.015,199.385c0-1.459,2.188-2.918,3.646-2.918s3.646,1.459,3.646,2.918l4.374,24.791H52.91L58.015,199.385z M59.474,75.428
		c24.062,0,47.396,2.188,64.165,6.562c-12.396,10.938-42.291,48.123-62.707,87.498c-23.333-37.188-53.958-74.373-70-86.041
		C8.433,78.344,33.224,75.428,59.474,75.428z M-52.817,168.032c2.917,3.646,8.021,7.293,16.771,10.209
		c0.729,0,1.458,0.729,2.188,0.729c2.917,0,5.833-2.188,6.562-5.104c1.458-3.646-0.729-8.021-4.375-9.48
		c-8.021-2.916-10.938-5.832-10.938-6.561c0,0,0,0,0-0.73c0,0,0,0,0-0.729c-8.021-29.168,8.021-36.459,10.208-37.188
		c2.916-1.459,5.104-4.375,4.374-8.021c-1.458-10.207,2.188-16.771,6.563-20.416c0.729,1.457,2.188,2.916,3.646,3.645
		c13.854,10.938,47.396,49.582,70.729,88.957c-4.375,2.918-8.021,7.291-8.749,12.396l-6.562,33.541
		c-0.729,2.188,0,4.375,1.459,5.834c1.458,1.457,3.646,2.916,5.833,2.916h10.208v358.018c-85.312,0-155.312,5.104-177.187,7.291
		c-8.749-80.207-6.562-209.268-5.833-237.705c1.458-0.729,2.188-1.459,3.646-2.188c10.208-8.021,17.499-26.98,20.417-56.147
		c5.104-46.666-10.208-92.602-17.5-109.373L-52.817,168.032z M-269.377,382.405l98.437-159.689c0.729-1.457,2.188-2.186,3.646-2.916
		l33.542-15.312c6.562,16.043,21.146,59.062,16.042,102.084c-4.375,41.561-15.312,46.664-16.771,47.395l-29.167-3.646v-56.146
		c0-4.375-2.916-7.293-7.292-7.293c-4.374,0-7.291,2.918-7.291,7.293v62.708l-2.918,169.895c0,2.188-0.729,4.375-1.458,6.562
		c-31.354-8.75-61.979-3.646-73.646-0.73c0-0.729-0.729-1.457-0.729-2.186l-14.583-139.271
		C-271.564,388.237-270.835,384.591-269.377,382.405z M-248.231,563.966l-3.646-18.23c10.938-2.916,36.458-6.561,61.979,0
		l-4.375,18.23C-215.42,561.048-237.294,562.507-248.231,563.966z M-120.63,618.651c21.875-2.189,91.146-7.291,175-7.291v15.311
		c-83.125,0-151.666,5.105-172.812,6.562C-119.17,628.86-119.899,623.757-120.63,618.651z M68.953,626.673V611.36
		c79.479,0.729,143.645,5.104,164.79,7.291c-0.729,5.105-1.458,10.209-2.188,15.312C211.138,631.776,147.702,627.401,68.953,626.673
		z M307.388,563.966l-4.374-18.23c25.521-6.561,50.312-2.916,61.978,0l-3.646,18.23
		C350.407,562.507,328.533,561.048,307.388,563.966z M371.553,529.694c0,0.729,0,1.459-0.729,2.188
		c-12.395-2.918-42.29-8.75-73.644,0.73c-0.729-2.189-1.458-4.375-1.458-6.562l-2.917-169.895v-62.708
		c0-4.375-2.917-7.291-7.291-7.291c-4.375,0-7.293,2.918-7.293,7.291v56.146l-29.165,3.646c-1.458-0.729-12.396-5.834-16.771-47.396
		c-5.104-42.293,9.479-85.312,16.041-102.082l33.541,15.312c1.458,0.729,2.916,1.457,3.646,2.916l98.437,159.685
		c1.457,2.916,2.188,5.834,2.188,9.48L371.553,529.694z"/>
	<path fill="#2C3E50" d="M10.62,311.676c5.104-2.918,7.291-10.209,4.375-15.312c-0.729-1.457-1.458-2.188-2.917-3.646
		c0-0.729,0.729-1.457,0.729-2.188V188.448c0-4.375-2.917-7.291-7.291-7.291c-4.375,0-7.292,2.916-7.292,7.291V290.53
		c0,0.729,0,1.459,0.729,2.188c-4.375,3.646-5.833,9.48-2.916,14.584C-1.775,313.135,5.517,315.321,10.62,311.676z"/>
	<path fill="#2C3E50" d="M125.097,293.448c0-0.73,0.729-1.459,0.729-2.188V189.176c0-4.375-2.916-7.291-7.292-7.291
		c-4.374,0-7.29,2.916-7.29,7.291V291.26c0,0.729,0,1.457,0.729,2.188c-4.375,3.645-5.833,9.479-2.917,14.584
		c2.917,5.104,10.209,7.291,15.312,4.373c5.104-2.916,7.291-10.207,4.375-15.312C127.286,295.633,126.555,294.176,125.097,293.448z"
		/>
	<path fill="#2C3E50" d="M206.764,577.819c1.458,0.729,2.188,1.457,3.646,1.457c2.188,0,5.104-1.457,5.833-3.646
		c2.188-3.645,1.458-8.02-2.188-10.209c-46.665-29.166-44.479-88.229-44.479-88.957c0-4.375-2.916-7.291-6.562-7.291
		c-4.376,0-7.292,2.916-8.021,6.562C155.722,478.653,152.806,544.276,206.764,577.819z"/>
	<path fill="#2C3E50" d="M-92.19,578.548c1.458,0,2.916,0,3.646-1.457c53.958-33.543,51.042-99.166,51.042-102.084
		c0-4.375-3.646-7.291-8.021-6.562c-4.375,0-7.292,3.646-6.562,8.021c0,0.729,2.916,59.791-44.479,88.957
		c-3.646,2.188-4.375,6.562-2.188,10.209C-97.296,577.091-95.108,578.548-92.19,578.548z"/>
</g>
</svg>
