<?xml version="1.0" encoding="utf-8"?>
<!-- Generator: Adobe Illustrator 16.0.0, SVG Export Plug-In . SVG Version: 6.00 Build 0)  -->
<!DOCTYPE svg PUBLIC "-//W3C//DTD SVG 1.1//EN" "http://www.w3.org/Graphics/SVG/1.1/DTD/svg11.dtd">
<svg version="1.1" id="Layer_1" xmlns="http://www.w3.org/2000/svg" xmlns:xlink="http://www.w3.org/1999/xlink" x="0px" y="0px"
	 width="740px" height="740px" viewBox="-15.669 -15.669 740 740" enable-background="new -15.669 -15.669 740 740"
	 xml:space="preserve">
<g opacity="0.1">
	<path stroke="#000000" stroke-miterlimit="10" d="M1.697,393.381c-3.646,5.105-5.104,11.666-4.375,18.23L10.447,550.15
		c0.729,4.375,2.188,9.479,5.834,12.395l5.833,29.896c0.729,3.646,4.375,6.562,8.021,5.834c0,0,34.271-4.377,63.438,0
		c0.729,0,0.729,0,1.458,0c3.646,0,6.562-2.188,7.291-5.834l6.562-27.709c4.375-5.104,7.291-12.395,7.291-18.957l2.917-161.873
		l21.875,2.916c-0.729,31.354-2.917,164.789,6.562,244.998c1.458,10.938,2.916,21.146,5.104,29.896
		c0.729,3.645,4.375,5.832,8.021,5.832c0.729,0,79.479-7.291,180.103-7.291c99.896,0,179.373,7.291,180.104,7.291h0.729
		c3.646,0,6.562-2.188,7.292-5.832c2.188-8.75,3.646-18.959,5.104-29.896c10.208-80.938,7.291-213.645,6.562-244.998l21.146-2.916
		l2.918,161.873c0,7.291,2.916,13.854,7.291,19.688l6.562,27.707c0.729,3.646,3.646,5.834,7.292,5.834c0.729,0,0.729,0,1.458,0
		c29.166-4.373,62.708,0,63.437,0c3.646,0.73,7.291-2.188,8.021-5.834l5.832-29.895c2.919-3.646,5.104-8.021,5.835-12.396
		l13.125-138.541c-0.003-7.291-1.462-13.123-5.106-18.957l-98.435-159.686c-2.188-3.646-5.834-6.562-9.479-8.75l-40.104-18.229
		l-74.375-33.541c5.104-22.604-6.562-38.646-16.041-45.938c0.729-24.062-15.312-35.729-24.062-38.646
		c-1.458-0.729-2.916-1.457-4.374-2.187c-18.229-5.104-43.021-7.293-68.54-7.293c-27.709,0-53.959,2.916-72.918,8.75
		c-1.457,0.729-3.646,1.459-4.375,2.188c-0.729,0-1.457,0-1.457,0c-8.75,3.646-23.334,15.312-23.334,35.729
		c-9.479,5.834-19.688,20.418-15.312,45.938l-75.833,33.543l-40.104,18.229c-4.375,2.188-7.292,5.104-9.479,8.75"/>
</g>
<g>
	<path fill="#C5CED9" stroke="#000000" stroke-miterlimit="10" d="M28.726,362.385c-3.646,5.104-5.104,11.666-4.375,18.229
		l13.125,138.539c0.729,4.375,2.188,9.479,5.834,12.396l5.833,29.896c0.729,3.646,4.375,6.562,8.021,5.834
		c0,0,34.271-4.377,63.438,0c0.729,0,0.729,0,1.458,0c3.646,0,6.562-2.188,7.291-5.834l6.562-27.709
		c4.375-5.104,7.291-12.396,7.291-18.957l2.917-161.873l21.875,2.916c-0.729,31.354-2.917,164.789,6.562,244.998
		c1.458,10.938,2.916,21.146,5.104,29.896c0.729,3.646,4.375,5.832,8.021,5.832c0.729,0,79.479-7.291,180.103-7.291
		c99.896,0,179.373,7.291,180.104,7.291h0.729c3.646,0,6.562-2.188,7.292-5.832c2.188-8.75,3.646-18.959,5.104-29.896
		c10.208-80.938,7.291-213.646,6.562-244.998l21.146-2.916l2.918,161.873c0,7.291,2.916,13.854,7.291,19.688l6.562,27.707
		c0.729,3.646,3.646,5.834,7.292,5.834c0.729,0,0.729,0,1.458,0c29.166-4.373,62.708,0,63.437,0
		c3.646,0.729,7.291-2.188,8.021-5.834l5.832-29.896c2.919-3.646,5.104-8.021,5.835-12.396l13.125-138.541
		c-0.003-7.291-1.462-13.123-5.106-18.957l-98.435-159.686c-2.188-3.646-5.834-6.562-9.479-8.75l-40.104-18.229l-74.375-33.541
		c5.104-22.604-6.562-38.646-16.041-45.938c0.729-24.062-15.312-35.729-24.062-38.646c-1.458-0.729-2.916-1.457-4.374-2.187
		c-18.229-5.104-43.021-7.293-68.54-7.293c-27.708,0-53.958,2.916-72.917,8.75c-1.458,0.729-3.646,1.459-4.375,2.188
		c-0.729,0-1.458,0-1.458,0c-8.75,3.646-23.333,15.312-23.333,35.729c-9.479,5.834-19.688,20.418-15.312,45.938l-75.833,33.543
		l-40.104,18.229c-4.375,2.188-7.292,5.104-9.479,8.75"/>
</g>
<g>
	<path fill="#2C3E50" d="M705.387,362.385L606.95,202.698c-2.188-3.646-5.834-6.562-9.479-8.75l-40.104-18.229l0,0l-74.375-33.541
		c5.104-22.604-6.562-38.646-16.041-45.938c0.729-24.062-15.312-35.729-24.062-38.646c-1.458-0.729-2.916-1.457-4.374-2.187
		c-18.229-5.104-43.021-7.293-68.541-7.293c-27.708,0-53.958,2.916-72.917,8.75c-1.458,0.729-3.646,1.459-4.375,2.188
		c-0.729,0-1.458,0-1.458,0c-8.75,3.646-23.333,15.312-23.333,35.729c-9.479,5.834-19.688,20.418-15.312,45.938l-75.833,33.543l0,0
		l0,0l-40.104,18.229c-4.375,2.188-7.292,5.104-9.479,8.75L28.726,362.386c-3.646,5.104-5.104,11.666-4.375,18.229l13.125,138.539
		c0.729,4.375,2.188,9.479,5.834,12.396l5.833,29.896c0.729,3.646,4.375,6.562,8.021,5.834c0,0,34.271-4.377,63.438,0
		c0.729,0,0.729,0,1.458,0c3.646,0,6.562-2.188,7.291-5.834l6.562-27.709l0,0l0,0c4.375-5.104,7.291-12.396,7.291-18.957
		l2.917-161.873l21.875,2.916c-0.729,31.354-2.917,164.789,6.562,244.998l0,0l0,0c1.458,10.938,2.916,21.146,5.104,29.896
		c0.729,3.646,4.375,5.832,8.021,5.832c0.729,0,79.479-7.291,180.103-7.291c99.896,0,179.373,7.291,180.104,7.291h0.729
		c3.646,0,6.562-2.188,7.292-5.832c2.188-8.75,3.646-18.959,5.104-29.896l0,0l0,0c10.208-80.938,7.291-213.646,6.562-244.998
		l21.146-2.916l2.918,161.873c0,7.291,2.916,13.854,7.291,19.688l6.562,27.707c0.729,3.646,3.646,5.834,7.292,5.834
		c0.729,0,0.729,0,1.458,0c29.166-4.373,62.708,0,63.437,0c3.646,0.729,7.291-2.188,8.021-5.834l5.832-29.896
		c2.919-3.646,5.104-8.021,5.835-12.396l13.125-138.541C710.492,374.051,709.033,368.219,705.387,362.385z M455.287,106.448
		c0.729,0.729,19.688,11.668,11.666,35.729c-1.458,1.459-2.188,2.188-2.917,2.918c-3.646,3.646-5.104,5.104-10.209,6.562
		c-3.646,0.729-6.562,5.104-5.104,8.75c0.729,3.646,3.646,5.834,7.292,5.834c0.729,0,1.458,0,2.188,0
		c8.75-2.188,12.396-5.834,16.771-10.209l0.729-0.729l69.271,30.625c-6.562,16.771-22.604,62.707-17.499,109.373
		c3.646,29.168,10.208,48.125,20.417,56.146c1.458,0.729,2.916,2.188,3.646,2.188c0.729,27.707,2.917,156.771-5.833,237.705
		c-21.146-1.457-86.041-6.562-166.248-7.291V226.76h10.209c2.188,0,4.374-0.729,5.832-2.919c1.458-1.456,2.188-3.645,1.458-5.831
		l-6.562-33.544c-0.729-5.831-4.375-10.206-9.479-13.125c18.958-39.375,50.312-78.747,63.438-91.145
		c0.729-0.73,1.459-1.457,2.188-2.188c3.646,4.375,6.562,10.938,5.104,21.146C451.64,102.803,453.098,104.991,455.287,106.448z
		 M368.517,187.385c0-1.46,2.188-2.919,3.646-2.919s3.646,1.459,3.646,2.919l4.375,24.79h-16.771L368.517,187.385z M369.976,63.428
		c24.062,0,47.396,2.188,64.164,6.562c-12.396,10.938-42.291,48.123-62.707,87.498c-23.333-37.188-53.958-74.373-70-86.041
		C318.934,66.344,343.725,63.428,369.976,63.428z M257.684,156.032c2.917,3.646,8.021,7.293,16.771,10.209
		c0.729,0,1.458,0.729,2.188,0.729c2.917,0,5.833-2.188,6.562-5.104c1.458-3.646-0.729-8.021-4.375-9.479
		c-8.021-2.916-10.938-5.832-10.938-6.562c0,0,0,0,0-0.729c0,0,0,0,0-0.729c-8.021-29.168,8.021-36.459,10.208-37.188
		c2.916-1.459,5.104-4.375,4.374-8.021c-1.458-10.207,2.188-16.771,6.562-20.416c0.729,1.457,2.188,2.916,3.646,3.646
		c13.854,10.938,47.396,49.581,70.729,88.956c-4.375,2.919-8.021,7.291-8.749,12.396l-6.562,33.541
		c-0.729,2.188,0,4.375,1.459,5.834c1.458,1.457,3.646,2.916,5.833,2.916h10.208V584.05c-85.312,0-155.312,5.104-177.188,7.291
		c-8.749-80.207-6.562-209.269-5.833-237.705c1.458-0.729,2.188-1.459,3.646-2.188c10.208-8.021,17.499-26.979,20.417-56.146
		c5.104-46.667-10.208-92.603-17.5-109.374L257.684,156.032z M41.124,370.405l98.438-159.689c0.729-1.457,2.188-2.186,3.646-2.916
		l33.542-15.312c6.562,16.043,21.146,59.062,16.042,102.084c-4.375,41.562-15.312,46.664-16.771,47.396l-29.167-3.646v-56.146
		c0-4.375-2.916-7.293-7.292-7.293c-4.374,0-7.291,2.918-7.291,7.293v62.709l-2.918,169.896c0,2.188-0.729,4.375-1.458,6.562
		c-31.354-8.75-61.979-3.646-73.646-0.729c0-0.729-0.729-1.457-0.729-2.187L38.936,379.153
		C38.937,376.237,39.666,372.592,41.124,370.405z M62.27,551.967l-3.646-18.229c10.938-2.916,36.458-6.562,61.979,0l-4.375,18.229
		C95.081,549.049,73.207,550.508,62.27,551.967z M189.871,606.651c21.875-2.188,91.146-7.291,175-7.291v15.312
		c-83.125,0-151.666,5.104-172.812,6.562C191.331,616.86,190.602,611.758,189.871,606.651z M379.454,614.674V599.36
		c79.479,0.729,143.646,5.104,164.79,7.291c-0.729,5.104-1.458,10.209-2.188,15.312
		C521.639,619.776,458.203,615.401,379.454,614.674z M617.889,551.967l-4.374-18.229c25.521-6.562,50.312-2.916,61.979,0
		l-3.646,18.229C660.908,550.508,639.034,549.049,617.889,551.967z M682.054,517.694c0,0.729,0,1.459-0.729,2.188
		c-12.396-2.918-42.29-8.75-73.645,0.729c-0.729-2.188-1.458-4.375-1.458-6.562l-2.917-169.896v-62.708
		c0-4.375-2.917-7.291-7.291-7.291c-4.375,0-7.293,2.918-7.293,7.291v56.146l-29.165,3.646c-1.458-0.729-12.396-5.834-16.771-47.396
		c-5.104-42.293,9.479-85.312,16.041-102.082l33.541,15.312c1.458,0.729,2.916,1.457,3.646,2.916l98.438,159.686
		c1.457,2.916,2.188,5.834,2.188,9.479L682.054,517.694z"/>
	<path fill="#2C3E50" d="M321.121,299.677c5.104-2.918,7.291-10.21,4.375-15.312c-0.729-1.457-1.458-2.188-2.917-3.646
		c0-0.729,0.729-1.456,0.729-2.188V176.448c0-4.375-2.917-7.291-7.291-7.291c-4.375,0-7.292,2.916-7.292,7.291V278.53
		c0,0.729,0,1.459,0.729,2.188c-4.375,3.646-5.833,9.48-2.916,14.585C308.726,301.135,316.018,303.321,321.121,299.677z"/>
	<path fill="#2C3E50" d="M435.598,281.448c0-0.73,0.729-1.459,0.729-2.188V177.176c0-4.375-2.916-7.29-7.292-7.29
		c-4.374,0-7.29,2.915-7.29,7.29V279.26c0,0.729,0,1.456,0.729,2.188c-4.375,3.645-5.833,9.479-2.917,14.584
		c2.917,5.104,10.209,7.291,15.312,4.373c5.104-2.916,7.291-10.208,4.375-15.312C437.787,283.633,437.056,282.176,435.598,281.448z"
		/>
	<path fill="#2C3E50" d="M517.265,565.819c1.458,0.729,2.188,1.457,3.646,1.457c2.188,0,5.104-1.457,5.833-3.646
		c2.188-3.646,1.458-8.021-2.188-10.209c-46.665-29.166-44.479-88.229-44.479-88.957c0-4.375-2.916-7.291-6.562-7.291
		c-4.376,0-7.292,2.916-8.021,6.562C466.223,466.653,463.307,532.276,517.265,565.819z"/>
	<path fill="#2C3E50" d="M218.311,566.549c1.458,0,2.916,0,3.646-1.457c53.958-33.543,51.042-99.166,51.042-102.084
		c0-4.375-3.646-7.291-8.021-6.562c-4.375,0-7.292,3.646-6.562,8.021c0,0.729,2.916,59.791-44.479,88.957
		c-3.646,2.188-4.375,6.562-2.188,10.209C213.205,565.092,215.393,566.549,218.311,566.549z"/>
</g>
</svg>
