<?xml version="1.0" encoding="utf-8"?>
<!-- Generator: Adobe Illustrator 16.0.0, SVG Export Plug-In . SVG Version: 6.00 Build 0)  -->
<!DOCTYPE svg PUBLIC "-//W3C//DTD SVG 1.1//EN" "http://www.w3.org/Graphics/SVG/1.1/DTD/svg11.dtd">
<svg version="1.1" id="Layer_1" xmlns="http://www.w3.org/2000/svg" xmlns:xlink="http://www.w3.org/1999/xlink" x="0px" y="0px"
	 width="708.662px" height="708.662px" viewBox="0 0 708.662 708.662" enable-background="new 0 0 708.662 708.662"
	 xml:space="preserve">
<path fill="#ECF0F1" stroke="#FFFFFF" stroke-miterlimit="10" d="M692.646,331.162l-98.432-160.407
	c-2.188-3.646-5.834-6.562-9.479-8.75l-40.103-18.228l0,0l0,0l-60.52-22.603l25.521-35.728c6.562-9.479,9.479-21.145,7.291-32.811
	c-2.188-11.666-8.749-21.874-18.229-28.436c-8.021-5.104-17.498-8.02-26.979-7.291c-1.458,0-2.188-0.729-3.646,0
	c-11.666,2.916-23.332,5.104-34.998,7.291c-2.188,0-3.646,0.729-5.104,0.729c-85.31,13.125-156.033-2.916-171.347-7.291l0,0l0,0
	c-2.916,0-4.374,0-4.374,0c-1.458,0-2.188,0-3.646,0c-9.479-0.729-19.688,1.458-27.706,7.291
	c-9.479,6.562-16.042,16.771-18.229,28.438c-2.188,11.667,0.729,23.333,7.292,32.811l22.604,32.082l-67.811,26.249l0,0l0,0
	l-40.103,18.229c-4.375,2.187-7.292,5.104-9.479,8.749L16.016,331.162c-3.646,5.103-5.104,11.667-4.375,18.228l13.124,189.572
	c0.729,4.375,2.188,8.75,5.104,12.396l5.832,41.561c0.73,3.646,4.375,6.561,8.021,5.834c0,0,34.268-4.377,63.434,0
	c0.729,0,0.729,0,1.458,0c3.646,0,6.562-2.189,7.292-5.834l6.562-40.104l0,0l0,0c4.375-5.104,7.292-12.395,7.292-18.957
	l2.916-212.901l21.874,2.916v353.625c0,3.645,2.917,6.561,6.562,7.291c0.729,0,65.621,7.291,196.136,7.291
	c130.516,0,187.387-7.291,189.572-7.291c3.646-0.73,6.562-3.646,6.562-7.291V323.141l21.873-2.917l2.917,212.906
	c0,7.291,2.916,13.854,7.291,19.688l6.562,40.104c0.729,3.646,3.646,5.834,7.291,5.834c0.729,0,0.729,0,1.459,0
	c29.164-4.377,62.703,0,63.436,0c3.646,0.729,7.292-2.188,8.021-5.834l5.834-41.561c2.916-3.646,5.104-8.021,5.104-12.396
	L697.02,349.39C697.751,342.829,696.295,336.265,692.646,331.162z"/>
<g>
	<path fill="#2C3E50" d="M692.646,331.162l-98.432-160.407c-2.188-3.646-5.834-6.562-9.479-8.75l-40.103-18.228l0,0l0,0
		l-60.52-22.603l25.521-35.728c6.562-9.479,9.479-21.145,7.291-32.811c-2.188-11.666-8.749-21.874-18.229-28.436
		c-8.021-5.104-17.498-8.02-26.979-7.291c-1.458,0-2.188-0.729-3.646,0c-11.666,2.916-23.332,5.104-34.998,7.291
		c-2.188,0-3.646,0.729-5.104,0.729c-85.31,13.125-156.033-2.916-171.347-7.291l0,0l0,0c-2.916,0-4.374,0-4.374,0
		c-1.458,0-2.188,0-3.646,0c-9.479-0.729-19.688,1.458-27.706,7.291c-9.479,6.562-16.042,16.771-18.229,28.438
		c-2.188,11.667,0.729,23.333,7.292,32.811l22.604,32.082l-67.811,26.249l0,0l0,0l-40.103,18.229
		c-4.375,2.187-7.292,5.104-9.479,8.749L16.016,331.162c-3.646,5.104-5.104,11.667-4.375,18.229l13.124,189.572
		c0.729,4.375,2.188,8.75,5.104,12.396l5.832,41.561c0.73,3.646,4.375,6.561,8.021,5.834c0,0,34.268-4.377,63.434,0
		c0.729,0,0.729,0,1.458,0c3.646,0,6.562-2.189,7.292-5.834l6.562-40.104l0,0l0,0c4.375-5.104,7.292-12.396,7.292-18.957
		l2.916-212.903l21.874,2.916v353.625c0,3.645,2.917,6.561,6.562,7.291c0.729,0,65.621,7.291,196.136,7.291
		c130.516,0,187.387-7.291,189.572-7.291c3.646-0.73,6.562-3.646,6.562-7.291V323.141l21.873-2.917l2.917,212.906
		c0,7.291,2.916,13.854,7.291,19.688l6.562,40.104c0.729,3.646,3.646,5.834,7.291,5.834c0.729,0,0.729,0,1.459,0
		c29.164-4.377,62.703,0,63.436,0c3.646,0.729,7.292-2.188,8.021-5.834l5.834-41.561c2.916-3.646,5.104-8.021,5.104-12.396
		L697.02,349.39C697.751,342.829,696.295,336.265,692.646,331.162z M502.345,55.553c1.458,8.021,0,15.312-5.104,21.874
		l-30.623,43.019c-8.749,12.395-24.79,15.312-37.187,6.562c-12.396-8.02-16.04-24.791-8.021-37.186l0.729-0.729l0,0l25.521-40.831
		c0.729-1.459,3.646-6.562,2.917-11.667c5.832-1.458,11.665-2.917,18.229-4.375h0.729c7.291-1.458,14.582,0,21.146,4.375
		C496.512,40.97,500.887,47.532,502.345,55.553z M353.603,181.691l-47.396-47.394c9.479,2.188,29.165,6.562,53.956,6.562
		c13.854,0,29.896-1.458,46.663-5.104C398.08,143.047,382.767,156.171,353.603,181.691z M406.099,120.445
		c-40.104,9.478-75.828,3.646-91.869,0c3.646-8.021,4.374-17.5,2.188-26.249c10.206,1.458,25.52,2.917,43.746,2.917
		c13.854,0,28.438-0.729,44.478-2.917C401.725,103.675,402.455,112.424,406.099,120.445z M360.893,44.615
		c21.146,0,44.479-1.458,68.538-5.104l0,0c0.729,0,2.188,0,2.917-0.729c0.729,0,0.729,0,1.458,0c0.729,0,1.458,0,2.188,0
		c0,0.729-0.729,1.458-0.729,1.458l-24.062,37.915c-45.205,8.75-90.411,2.917-102.077,0.729l-24.79-39.373c1.458,0,3.646,0,8.021,0
		l0,0C310.587,42.428,333.917,44.615,360.893,44.615z M217.258,55.553c1.458-8.021,5.832-14.583,12.396-18.958
		c7.292-4.375,15.312-5.833,23.332-3.646c2.917,0.729,8.75,2.188,15.312,3.646c0,4.375,1.458,8.75,3.646,11.667l26.249,41.56
		c8.021,12.395,4.375,29.166-8.021,37.186c-12.396,8.02-28.437,5.104-37.187-6.562l-30.623-43.021
		C217.985,70.864,215.8,62.844,217.258,55.553z M28.414,338.454l98.433-159.679c0.729-1.458,2.188-2.187,3.646-2.916l33.54-15.312
		c6.562,16.041,21.146,59.06,16.042,102.078c-4.375,41.56-15.312,46.664-16.77,47.393l-29.166-3.646v-34.27
		c0-4.375-2.916-7.292-7.292-7.292c-4.375,0-7.291,2.917-7.291,7.292v40.831l-2.917,220.925c0,2.188-0.729,4.375-1.458,6.562
		c-31.354-8.75-61.979-3.646-73.643-0.729c0-0.729-0.729-1.457-0.729-2.188L26.225,347.931
		C26.225,344.287,26.956,341.37,28.414,338.454z M102.784,583.44c-21.145-2.188-42.288-0.73-53.227,0l-4.375-30.625
		c10.937-2.916,36.456-6.562,62.705,0L102.784,583.44z M169.864,322.413c1.458-0.729,2.188-1.459,3.646-2.188
		c10.208-8.021,17.498-26.978,20.414-56.142c5.104-46.665-10.207-91.87-16.771-109.369l63.436-24.061c0.729,0,1.458-0.73,1.458-0.73
		c8.021,10.938,20.416,16.77,33.54,16.77c5.833,0,12.396-1.458,18.229-4.374l48.854,48.851c-8.75,8.02-13.854,18.957-13.854,31.352
		v454.976c-88.226-0.73-141.451-5.105-158.949-6.562L169.864,322.413L169.864,322.413z M377.665,676.767V221.064
		c0-4.375-2.916-7.291-7.292-7.291c-4.374,0-7.29,2.917-7.29,7.291v456.433c-1.456,0-3.646,0-5.104,0c-5.104,0-9.478,0-14.582,0
		V222.522c0-8.02,3.646-15.311,9.479-20.415c1.458-1.459,3.646-2.917,5.104-4.375c0,0,0.729,0,0.729-0.729l0,0
		c34.998-30.624,58.328-51.039,64.16-56.143c6.562,3.646,13.854,5.833,21.146,5.833c10.938,0,21.874-4.374,30.624-13.124
		l56.871,21.874c-6.562,17.499-22.604,62.705-16.771,109.369c3.646,29.165,10.207,48.122,20.415,56.144
		c1.458,0.729,2.188,1.457,3.646,2.187v347.792C522.031,672.394,470.263,676.767,377.665,676.767z M605.884,583.44l-5.104-29.896
		c25.521-7.291,51.036-2.918,62.702,0l-4.374,30.621C648.172,581.981,626.3,580.521,605.884,583.44z M669.314,536.776
		c0,0.729,0,1.457-0.729,2.188c-12.396-2.916-42.29-8.75-73.645,0.729c-0.729-2.188-1.457-4.375-1.457-6.562l-2.916-220.926v-40.831
		c0-4.375-2.919-7.291-7.293-7.291c-4.373,0-7.291,2.917-7.291,7.291v34.269l-29.164,3.646c-1.458-0.729-12.396-5.832-16.771-47.394
		c-5.104-42.289,9.479-85.308,16.04-102.078l33.54,15.312c1.458,0.729,2.916,1.458,3.646,2.916l98.435,159.679
		c1.459,2.917,2.188,5.833,2.188,9.479L669.314,536.776z"/>
	<path fill="#2C3E50" d="M294.545,513.444H198.3c-4.375,0-7.292,2.916-7.292,7.291v29.895v95.517c0,3.646,2.916,7.291,7.292,7.291
		l96.245,4.375l0,0c2.188,0,3.646-0.729,5.104-2.188s2.188-3.646,2.188-5.104v-99.893v-29.895
		C301.836,516.36,298.919,513.444,294.545,513.444z M287.253,544.796l-40.831,12.396l-40.83-12.396v-16.77h81.661V544.796z
		 M205.592,639.583v-79.477l38.646,11.666c0.729,0,1.458,0,2.188,0c0.73,0,1.458,0,2.188,0l38.645-11.666v83.117L205.592,639.583z"
		/>
	<path fill="#2C3E50" d="M505.991,513.444h-96.245c-4.374,0-7.291,2.916-7.291,7.291v29.895v100.619
		c0,2.188,0.729,3.646,2.188,5.104c1.459,1.457,2.916,2.188,5.104,2.188l0,0l96.976-5.104c3.646,0,7.291-3.646,7.291-7.291V550.63
		v-29.895C513.283,516.36,510.365,513.444,505.991,513.444z M498.699,544.796l-40.83,12.396l-40.831-12.396v-16.77h81.661V544.796
		L498.699,544.796z M417.038,643.229V560.11l38.646,11.666c0.729,0,1.458,0,2.188,0c0.73,0,1.458,0,2.188,0l38.645-11.666v78.743
		L417.038,643.229z"/>
	<path fill="#2C3E50" d="M415.58,415.739c4.374,0,7.29-2.914,7.29-7.289V276.477c0-4.374-2.916-7.291-7.29-7.291
		c-4.376,0-7.292,2.917-7.292,7.291v132.702C408.288,412.823,411.933,415.739,415.58,415.739z"/>
	<path fill="#2C3E50" d="M284.337,415.739c4.375,0,7.291-2.914,7.291-7.289V276.477c0-4.374-2.916-7.291-7.291-7.291
		s-7.292,2.917-7.292,7.291v132.702C277.046,412.823,279.962,415.739,284.337,415.739z"/>
</g>
</svg>
