<?xml version="1.0" encoding="UTF-8" standalone="no"?>
<!-- Generator: Adobe Illustrator 16.0.0, SVG Export Plug-In . SVG Version: 6.00 Build 0)  -->

<svg
   xmlns:dc="http://purl.org/dc/elements/1.1/"
   xmlns:cc="http://creativecommons.org/ns#"
   xmlns:rdf="http://www.w3.org/1999/02/22-rdf-syntax-ns#"
   xmlns:svg="http://www.w3.org/2000/svg"
   xmlns="http://www.w3.org/2000/svg"
   xmlns:sodipodi="http://sodipodi.sourceforge.net/DTD/sodipodi-0.dtd"
   xmlns:inkscape="http://www.inkscape.org/namespaces/inkscape"
   version="1.1"
   id="Layer_1"
   x="0px"
   y="0px"
   width="740"
   height="740"
   viewBox="-15.669 -16.669 740 740"
   enable-background="new -15.669 -16.669 740 740"
   xml:space="preserve"
   inkscape:version="0.48.5 r10040"
   sodipodi:docname="jacket.svg"><metadata
   id="metadata23"><rdf:RDF><cc:Work
       rdf:about=""><dc:format>image/svg+xml</dc:format><dc:type
         rdf:resource="http://purl.org/dc/dcmitype/StillImage" /></cc:Work></rdf:RDF></metadata><defs
   id="defs21" /><sodipodi:namedview
   pagecolor="#ffffff"
   bordercolor="#666666"
   borderopacity="1"
   objecttolerance="10"
   gridtolerance="10"
   guidetolerance="10"
   inkscape:pageopacity="0"
   inkscape:pageshadow="2"
   inkscape:window-width="640"
   inkscape:window-height="480"
   id="namedview19"
   showgrid="false"
   inkscape:zoom="0.31891892"
   inkscape:cx="370"
   inkscape:cy="370"
   inkscape:window-x="34"
   inkscape:window-y="239"
   inkscape:window-maximized="0"
   inkscape:current-layer="Layer_1"
   borderlayer="false"
   inkscape:showpageshadow="false"
   showborder="true" />
<path
   stroke-miterlimit="10"
   d="m 681.372,353.65029 -98.434,-160.407 c -2.188,-3.646 -5.834,-6.562 -9.479,-8.75 l -40.104,-18.228 0,0 0,0 -60.52,-22.603 25.521,-35.728 c 6.562,-9.479 9.479,-21.145 7.291,-32.811002 -2.188,-11.666 -8.75,-21.874 -18.229,-28.436 -8.021,-5.104 -17.498,-8.02 -26.98,-7.291 -1.457,0 -2.188,-0.729 -3.645,0 -11.666,2.916 -23.332,5.104 -34.998,7.291 -2.189,0 -3.646,0.729 -5.105,0.729 -85.309,13.125 -156.033,-2.916 -171.346,-7.291 l 0,0 0,0 c -2.916,0 -4.374,0 -4.374,0 -1.458,0 -2.188,0 -3.646,0 -9.479,-0.729 -19.688,1.458 -27.706,7.291 -9.479,6.562 -16.042,16.771 -18.229,28.438 -2.188,11.667002 0.729,23.333002 7.292,32.811002 l 22.604,32.082 -67.811,26.249 0,0 0,0 -40.103,18.229 c -4.375,2.187 -7.292,5.104 -9.479,8.749 l -99.151,159.676 c -3.646,5.104 -5.104,11.668 -4.375,18.229 l 13.124,189.572 c 0.729,4.375 2.188,8.75 5.104,12.396 l 5.832,41.561 c 0.73,3.645 4.375,6.561 8.021,5.834 0,0 34.268,-4.377 63.434,0 0.729,0 0.729,0 1.458,0 3.646,0 6.562,-2.189 7.292,-5.834 l 6.562,-40.105 0,0 0,0 c 4.375,-5.104 7.292,-12.395 7.292,-18.957 l 2.916,-212.9 21.874,2.916 v 353.625 c 0,3.645 2.917,6.561 6.562,7.291 0.729,0 65.621,7.291 196.136,7.291 130.516,0 187.387,-7.291 189.573,-7.291 3.645,-0.73 6.561,-3.646 6.561,-7.291 v -354.358 l 21.873,-2.916 2.918,212.906 c 0,7.291 2.916,13.854 7.291,19.688 l 6.562,40.104 c 0.729,3.646 3.645,5.834 7.291,5.834 0.729,0 0.729,0 1.459,0 29.164,-4.377 62.703,0 63.436,0 3.646,0.73 7.291,-2.188 8.021,-5.834 l 5.834,-41.561 c 2.916,-3.646 5.104,-8.021 5.104,-12.396 l 13.85,-189.574 c 0.73,-6.562 -0.725,-13.126 -4.374,-18.23 z"
   id="path3"
   inkscape:connector-curvature="0"
   style="opacity:0.15;stroke:#ffffff;stroke-miterlimit:10" />
<path
   stroke-miterlimit="10"
   d="m 702.646,316.07429 -98.432,-160.407 c -2.188,-3.646 -5.834,-6.562 -9.479,-8.75 l -40.104,-18.228 0,0 0,0 -60.52,-22.603 25.521,-35.728002 c 6.562,-9.479 9.479,-21.145 7.291,-32.811 -2.188,-11.666 -8.749,-21.874 -18.229,-28.436 -8.021,-5.104 -17.498,-8.02 -26.979,-7.291 -1.458,0 -2.188,-0.729 -3.646,0 -11.666,2.916 -23.332,5.104 -34.998,7.291 -2.188,0 -3.646,0.729 -5.104,0.729 -85.31,13.125 -156.033,-2.916 -171.347,-7.291 l 0,0 0,0 c -2.916,0 -4.374,0 -4.374,0 -1.458,0 -2.188,0 -3.646,0 -9.479,-0.729 -19.688,1.458 -27.706,7.291 -9.479,6.562 -16.042,16.771 -18.229,28.438 -2.188,11.667 0.729,23.333 7.292,32.811 l 22.604,32.082002 -67.811,26.249 0,0 0,0 -40.103,18.229 c -4.375,2.187 -7.292,5.104 -9.479,8.749 l -99.152,159.676 c -3.646,5.103 -5.104,11.667 -4.375,18.228 l 13.124,189.572 c 0.729,4.375 2.188,8.75 5.104,12.396 l 5.832,41.561 c 0.73,3.646 4.375,6.561 8.021,5.834 0,0 34.268,-4.377 63.434,0 0.729,0 0.729,0 1.458,0 3.646,0 6.562,-2.189 7.292,-5.834 l 6.562,-40.104 0,0 0,0 c 4.375,-5.104 7.292,-12.395 7.292,-18.957 l 2.916,-212.9 21.874,2.916 v 353.625 c 0,3.645 2.917,6.561 6.562,7.291 0.729,0 65.621,7.291 196.136,7.291 130.516,0 187.387,-7.291 189.572,-7.291 3.646,-0.73 6.562,-3.646 6.562,-7.291 v -354.359 l 21.873,-2.917 2.917,212.906 c 0,7.291 2.916,13.854 7.291,19.688 l 6.562,40.104 c 0.729,3.646 3.646,5.834 7.291,5.834 0.729,0 0.729,0 1.459,0 29.164,-4.377 62.703,0 63.436,0 3.646,0.729 7.292,-2.188 8.021,-5.834 l 5.834,-41.561 c 2.916,-3.646 5.104,-8.021 5.104,-12.396 l 13.85,-189.575 c 0.731,-6.56 -0.725,-13.125 -4.374,-18.227 z"
   id="path5"
   inkscape:connector-curvature="0"
   style="fill:#8f7959;stroke:#ffffff;stroke-miterlimit:10" />
<g
   id="g7"
   transform="translate(2,3.237288)">
	<path
   d="M 700.646,312.837 602.214,152.43 c -2.188,-3.646 -5.834,-6.562 -9.479,-8.75 l -40.104,-18.228 0,0 0,0 -60.52,-22.603 25.521,-35.728 c 6.562,-9.479 9.479,-21.145 7.291,-32.811 -2.188,-11.666 -8.749,-21.874 -18.229,-28.436 -8.021,-5.104 -17.498,-8.02 -26.979,-7.291 -1.458,0 -2.188,-0.729 -3.646,0 -11.666,2.916 -23.332,5.104 -34.998,7.291 -2.188,0 -3.646,0.729 -5.104,0.729 C 350.657,19.728 279.934,3.687 264.62,-0.688 l 0,0 0,0 c -2.916,0 -4.374,0 -4.374,0 -1.458,0 -2.188,0 -3.646,0 -9.479,-0.729 -19.688,1.458 -27.706,7.291 -9.479,6.562 -16.042,16.771 -18.229,28.438 -2.188,11.667 0.729,23.333 7.292,32.811 l 22.604,32.082 -67.811,26.249 0,0 0,0 -40.103,18.229 c -4.375,2.187 -7.292,5.104 -9.479,8.749 L 24.016,312.837 c -3.646,5.104 -5.104,11.667 -4.375,18.229 l 13.124,189.572 c 0.729,4.375 2.188,8.75 5.104,12.396 l 5.832,41.561 c 0.73,3.646 4.375,6.561 8.021,5.834 0,0 34.268,-4.377 63.434,0 0.729,0 0.729,0 1.458,0 3.646,0 6.562,-2.189 7.292,-5.834 l 6.562,-40.104 0,0 0,0 c 4.375,-5.104 7.292,-12.396 7.292,-18.957 l 2.916,-212.903 21.874,2.916 v 353.625 c 0,3.645 2.917,6.561 6.562,7.291 0.729,0 65.621,7.291 196.136,7.291 130.516,0 187.387,-7.291 189.572,-7.291 3.646,-0.73 6.562,-3.646 6.562,-7.291 V 304.815 l 21.873,-2.917 2.917,212.906 c 0,7.291 2.916,13.854 7.291,19.688 l 6.562,40.104 c 0.729,3.646 3.646,5.834 7.291,5.834 0.729,0 0.729,0 1.459,0 29.164,-4.377 62.703,0 63.436,0 3.646,0.729 7.292,-2.188 8.021,-5.834 l 5.834,-41.561 c 2.916,-3.646 5.104,-8.021 5.104,-12.396 l 13.85,-189.575 c 0.731,-6.56 -0.725,-13.125 -4.374,-18.227 z M 510.345,37.228 c 1.458,8.021 0,15.312 -5.104,21.874 l -30.623,43.019 c -8.749,12.395 -24.79,15.312 -37.188,6.562 -12.396,-8.02 -16.04,-24.791 -8.021,-37.186 l 0.729,-0.729 0,0 25.521,-40.831 c 0.729,-1.459 3.646,-6.562 2.917,-11.667 5.832,-1.458 11.665,-2.917 18.229,-4.375 h 0.729 c 7.291,-1.458 14.582,0 21.146,4.375 5.832,4.375 10.207,10.937 11.665,18.958 z M 361.604,163.366 314.208,115.972 c 9.479,2.188 29.165,6.562 53.956,6.562 13.854,0 29.896,-1.458 46.663,-5.104 -8.747,7.292 -24.06,20.416 -53.223,45.936 z m 52.495,-61.246 c -40.104,9.478 -75.828,3.646 -91.869,0 3.646,-8.021 4.374,-17.5 2.188,-26.249 10.206,1.458 25.52,2.917 43.746,2.917 13.854,0 28.438,-0.729 44.478,-2.917 -2.917,9.479 -2.187,18.228 1.457,26.249 z M 368.894,26.29 c 21.146,0 44.479,-1.458 68.537,-5.104 l 0,0 c 0.729,0 2.188,0 2.917,-0.729 0.729,0 0.729,0 1.458,0 0.729,0 1.458,0 2.188,0 0,0.729 -0.729,1.458 -0.729,1.458 L 419.203,59.83 c -45.205,8.75 -90.411,2.917 -102.077,0.729 l -24.79,-39.373 c 1.458,0 3.646,0 8.021,0 l 0,0 c 18.23,2.917 41.56,5.104 68.537,5.104 z M 225.258,37.228 c 1.458,-8.021 5.832,-14.583 12.396,-18.958 7.292,-4.375 15.312,-5.833 23.332,-3.646 2.917,0.729 8.75,2.188 15.312,3.646 0,4.375 1.458,8.75 3.646,11.667 l 26.249,41.56 c 8.021,12.395 4.375,29.166 -8.021,37.186 -12.396,8.02 -28.437,5.104 -37.187,-6.562 L 230.362,59.1 C 225.985,52.539 223.8,44.519 225.258,37.228 z M 36.414,320.129 134.847,160.45 c 0.729,-1.458 2.188,-2.187 3.646,-2.916 l 33.54,-15.312 c 6.562,16.041 21.146,59.06 16.042,102.078 -4.375,41.56 -15.312,46.664 -16.77,47.393 l -29.166,-3.646 v -34.27 c 0,-4.375 -2.916,-7.292 -7.292,-7.292 -4.375,0 -7.291,2.917 -7.291,7.292 v 40.831 l -2.917,220.926 c 0,2.188 -0.729,4.375 -1.458,6.562 -31.354,-8.75 -61.979,-3.646 -73.643,-0.729 0,-0.729 -0.729,-1.457 -0.729,-2.188 L 34.225,329.605 c 0,-3.643 0.731,-6.56 2.189,-9.476 z m 74.37,244.986 c -21.145,-2.188 -42.288,-0.73 -53.227,0 L 53.182,534.49 c 10.937,-2.916 36.456,-6.562 62.705,0 l -5.103,30.625 z m 67.08,-261.027 c 1.458,-0.729 2.188,-1.459 3.646,-2.188 10.208,-8.021 17.498,-26.978 20.414,-56.142 5.104,-46.665 -10.207,-91.87 -16.771,-109.369 l 63.436,-24.061 c 0.729,0 1.458,-0.73 1.458,-0.73 8.021,10.938 20.416,16.77 33.54,16.77 5.833,0 12.396,-1.458 18.229,-4.374 l 48.854,48.851 c -8.75,8.02 -13.854,18.957 -13.854,31.352 v 454.976 c -88.226,-0.73 -141.451,-5.105 -158.949,-6.562 l -0.003,-348.523 0,0 z M 385.665,658.441 V 202.739 c 0,-4.375 -2.916,-7.291 -7.292,-7.291 -4.374,0 -7.29,2.917 -7.29,7.291 v 456.433 c -1.456,0 -3.646,0 -5.104,0 -5.104,0 -9.479,0 -14.583,0 V 204.197 c 0,-8.02 3.646,-15.311 9.479,-20.415 1.458,-1.459 3.646,-2.917 5.104,-4.375 0,0 0.729,0 0.729,-0.729 l 0,0 c 34.998,-30.624 58.328,-51.039 64.16,-56.143 6.562,3.646 13.854,5.833 21.146,5.833 10.938,0 21.874,-4.374 30.624,-13.124 l 56.871,21.874 c -6.562,17.499 -22.604,62.705 -16.771,109.369 3.646,29.165 10.207,48.122 20.415,56.144 1.458,0.729 2.188,1.457 3.646,2.187 V 652.61 c -16.768,1.458 -68.536,5.831 -161.134,5.831 z m 228.219,-93.326 -5.104,-29.896 c 25.521,-7.291 51.036,-2.918 62.702,0 l -4.374,30.621 c -10.936,-2.184 -32.808,-3.644 -53.224,-0.725 z m 63.43,-46.664 c 0,0.729 0,1.457 -0.729,2.188 -12.396,-2.916 -42.29,-8.75 -73.645,0.729 -0.729,-2.188 -1.457,-4.375 -1.457,-6.562 L 598.567,293.88 v -40.831 c 0,-4.375 -2.919,-7.291 -7.293,-7.291 -4.373,0 -7.291,2.917 -7.291,7.291 v 34.269 l -29.164,3.646 c -1.458,-0.729 -12.396,-5.832 -16.771,-47.394 -5.104,-42.289 9.479,-85.308 16.04,-102.078 l 33.54,15.312 c 1.458,0.729 2.916,1.458 3.646,2.916 l 98.436,159.679 c 1.459,2.917 2.188,5.833 2.188,9.479 l -14.584,189.573 z"
   id="path9"
   inkscape:connector-curvature="0"
   style="fill:#2c3e50" />
	<path
   d="M 302.545,495.119 H 206.3 c -4.375,0 -7.292,2.916 -7.292,7.291 v 29.895 95.517 c 0,3.646 2.916,7.291 7.292,7.291 l 96.245,4.375 0,0 c 2.188,0 3.646,-0.729 5.104,-2.188 1.458,-1.459 2.188,-3.646 2.188,-5.104 v -99.894 -29.895 c -10e-4,-4.372 -2.918,-7.288 -7.292,-7.288 z m -7.292,31.352 -40.831,12.396 -40.83,-12.396 v -16.77 h 81.661 v 16.77 z m -81.661,94.787 v -79.477 l 38.646,11.666 c 0.729,0 1.458,0 2.188,0 0.73,0 1.458,0 2.188,0 l 38.645,-11.666 v 83.116 l -81.667,-3.639 z"
   id="path11"
   inkscape:connector-curvature="0"
   style="fill:#2c3e50" />
	<path
   d="m 513.991,495.119 h -96.245 c -4.374,0 -7.291,2.916 -7.291,7.291 v 29.895 100.619 c 0,2.188 0.729,3.646 2.188,5.104 1.459,1.456 2.916,2.188 5.104,2.188 l 0,0 96.976,-5.104 c 3.646,0 7.291,-3.646 7.291,-7.291 V 532.304 502.41 c -0.731,-4.375 -3.649,-7.291 -8.023,-7.291 z m -7.292,31.352 -40.83,12.396 -40.831,-12.396 v -16.77 h 81.661 v 16.77 l 0,0 z m -81.661,98.432 v -83.118 l 38.646,11.666 c 0.729,0 1.458,0 2.188,0 0.729,0 1.458,0 2.188,0 l 38.646,-11.666 v 78.742 l -81.668,4.376 z"
   id="path13"
   inkscape:connector-curvature="0"
   style="fill:#2c3e50" />
	<path
   d="m 423.58,397.414 c 4.374,0 7.29,-2.914 7.29,-7.289 V 258.152 c 0,-4.374 -2.916,-7.291 -7.29,-7.291 -4.376,0 -7.292,2.917 -7.292,7.291 v 132.702 c 0,3.644 3.645,6.56 7.292,6.56 z"
   id="path15"
   inkscape:connector-curvature="0"
   style="fill:#2c3e50" />
	<path
   d="m 292.337,397.414 c 4.375,0 7.291,-2.914 7.291,-7.289 V 258.152 c 0,-4.374 -2.916,-7.291 -7.291,-7.291 -4.375,0 -7.292,2.917 -7.292,7.291 v 132.702 c 10e-4,3.644 2.917,6.56 7.292,6.56 z"
   id="path17"
   inkscape:connector-curvature="0"
   style="fill:#2c3e50" />
</g>
</svg>