<?xml version="1.0" encoding="utf-8"?>
<!-- Generator: Adobe Illustrator 16.0.0, SVG Export Plug-In . SVG Version: 6.00 Build 0)  -->
<!DOCTYPE svg PUBLIC "-//W3C//DTD SVG 1.1//EN" "http://www.w3.org/Graphics/SVG/1.1/DTD/svg11.dtd">
<svg version="1.1" id="Layer_1" xmlns="http://www.w3.org/2000/svg" xmlns:xlink="http://www.w3.org/1999/xlink" x="0px" y="0px"
	 width="708.662px" height="708.662px" viewBox="-297.5 0 708.662 708.662" enable-background="new -297.5 0 708.662 708.662"
	 xml:space="preserve">
<path fill="#ECF0F1" stroke="#FFFFFF" stroke-miterlimit="10" d="M397.315,153.167C365.978,128.428,275.264,97.09,271.139,95.44
	L137.546,53.381c-7.425-2.474-15.669-2.474-23.093,0.825c-18.144,7.422-57.729,7.422-57.729,7.422
	c-10.72,0-42.882-1.649-57.728-7.422c-7.424-3.299-15.669-3.299-23.917-0.825l-132.77,42.884
	c-4.124,1.649-94.016,32.163-126.178,57.727c-3.298,2.475-4.121,7.422-1.646,10.721l73.396,127.824
	c1.649,3.3,5.772,4.949,9.896,4.123c5.771-1.647,23.916-4.946,32.987,0c3.298,1.65,4.945,4.125,6.597,8.248l-6.596,343.887
	c0,2.476,0.822,4.124,2.475,5.771c1.649,1.647,3.299,2.477,5.772,2.477h436.252c2.475,0,4.123-0.826,5.771-2.477
	c1.648-1.647,2.478-4.123,2.478-5.771l-6.601-343.887c0.825-3.299,3.302-5.773,6.601-8.248c9.896-5.772,27.214-2.474,32.985,0
	c3.299,0.824,7.424-0.824,9.896-4.123l73.398-127.824C401.439,160.59,400.615,155.641,397.315,153.167z"/>
<path fill="#2C3E50" d="M397.315,153.167C365.978,128.428,275.264,97.09,271.139,95.44L137.546,53.381
	c-7.425-2.474-15.669-2.474-23.093,0.825c-18.144,7.422-57.729,7.422-57.729,7.422c-10.72,0-42.882-1.649-57.728-7.422
	c-7.424-3.299-15.669-3.299-23.917-0.825l-132.77,42.884c-4.124,1.649-94.016,32.163-126.178,57.727
	c-3.298,2.475-4.121,7.422-1.646,10.721l73.396,127.824c1.649,3.3,5.772,4.949,9.896,4.123c5.771-1.647,23.916-4.946,32.987,0
	c3.298,1.65,4.945,4.125,6.597,8.248l-6.596,343.887c0,2.476,0.822,4.124,2.475,5.771c1.649,1.647,3.299,2.477,5.772,2.477h436.252
	c2.475,0,4.123-0.826,5.771-2.477c1.648-1.647,2.478-4.123,2.478-5.771l-6.601-343.887c0.825-3.299,3.302-5.773,6.601-8.248
	c9.896-5.772,27.214-2.474,32.985,0c3.299,0.824,7.424-0.824,9.896-4.123l73.398-127.824
	C401.439,160.59,400.615,155.641,397.315,153.167z M56.725,142.447c-32.986,0-50.306-17.318-59.376-32.162
	c-9.896-15.669-11.545-30.513-11.545-31.338c0-3.299,1.649-5.773,4.947-5.773c0,0,0,0,0.824,0c2.477,0,4.948,1.649,5.772,4.948
	c0,0,1.649,14.02,9.896,27.214c10.724,17.318,28.039,26.39,50.308,26.39c22.267,0,39.584-9.072,50.304-26.39
	c8.248-13.195,9.897-26.39,9.897-27.214c0-2.474,2.474-4.948,5.771-4.948c0,0,0,0,0.823,0c3.3,0,4.949,3.299,4.949,5.773
	c0,0.825-1.649,15.669-11.547,31.338C107.032,125.128,89.716,142.447,56.725,142.447z M100.433,75.648L100.433,75.648
	L100.433,75.648c0,0-1.648,10.721-7.422,20.617c-8.247,13.195-19.793,18.968-36.288,18.968c-16.493,0-28.038-5.773-36.285-18.143
	c-6.597-9.896-7.422-20.617-7.422-20.617l0,0c19.792,3.299,42.884,3.299,43.707,3.299C58.378,78.947,80.639,78.947,100.433,75.648z
	 M-201.397,278.518l-66.798-116.278c33.811-22.268,114.63-50.306,115.452-50.306l122.054-38.76
	c-0.824,2.474-0.824,4.948-0.824,7.422c0,1.649,2.474,19.792,14.02,37.934c2.477,4.125,4.949,7.423,8.247,10.721
	c-96.486,27.216-148.441,122.053-161.638,149.267C-181.606,275.219-193.975,276.869-201.397,278.518z M-152.742,639.726l6.6-336.467
	c0-0.825,0-1.648,0-2.473c-1.648-6.598-4.948-11.547-9.07-15.669c12.368-24.741,65.147-120.403,159.984-141.845
	c0.825,0,0.825-0.825,1.648-0.825c14.021,9.896,31.339,15.669,51.132,15.669c18.968,0,36.285-4.948,50.304-14.844l0,0
	c97.312,21.442,150.916,122.052,160.812,143.494c-3.301,3.298-5.771,8.247-7.422,13.195c0,0.825,0,1.649,0,2.473l6.599,336.465
	h-420.586V639.726z M314.848,278.518c-7.423-1.649-20.617-3.299-32.985,0.825c-12.37-25.565-63.501-120.403-159.985-148.442
	c3.298-3.298,5.771-7.422,9.069-11.546c11.545-18.142,13.193-36.285,14.021-37.934c0-2.474,0-4.948-0.826-7.422l122.054,37.936
	c0.824,0,81.645,28.038,115.452,50.306L314.848,278.518z"/>
</svg>
