<?xml version="1.0" encoding="utf-8"?>
<!-- Generator: Adobe Illustrator 16.0.0, SVG Export Plug-In . SVG Version: 6.00 Build 0)  -->
<!DOCTYPE svg PUBLIC "-//W3C//DTD SVG 1.1//EN" "http://www.w3.org/Graphics/SVG/1.1/DTD/svg11.dtd">
<svg version="1.1" id="Layer_1" xmlns="http://www.w3.org/2000/svg" xmlns:xlink="http://www.w3.org/1999/xlink" x="0px" y="0px"
	 width="740px" height="740px" viewBox="-10.669 -15.669 740 740" enable-background="new -10.669 -15.669 740 740"
	 xml:space="preserve">
<path opacity="0.1" stroke="#FFFFFF" stroke-miterlimit="10" d="M681.603,173.786c-31.338-24.739-122.052-56.077-126.177-57.727
	l-133.594-42.06c-7.425-2.474-15.669-2.474-23.093,0.825c-18.144,7.422-57.729,7.422-57.729,7.422
	c-10.721,0-42.883-1.648-57.729-7.422c-7.424-3.299-15.669-3.299-23.917-0.825l-132.768,42.885
	c-4.124,1.648-94.017,32.163-126.179,57.727c-3.298,2.475-4.121,7.422-1.646,10.721l73.396,127.824
	c1.649,3.3,5.772,4.948,9.896,4.123c5.771-1.646,23.916-4.946,32.987,0c3.298,1.649,4.944,4.125,6.597,8.248l-6.596,343.887
	c0,2.477,0.821,4.125,2.475,5.771c1.649,1.646,3.299,2.477,5.772,2.477H559.55c2.476,0,4.123-0.825,5.771-2.477
	c1.647-1.646,2.479-4.123,2.479-5.771l-6.602-343.888c0.825-3.299,3.302-5.772,6.602-8.247c9.896-5.771,27.215-2.474,32.984,0
	c3.299,0.823,7.424-0.824,9.896-4.123l73.396-127.824C685.727,181.209,684.902,176.26,681.603,173.786z"/>
<path fill="#F5F6BD" stroke="#FFFFFF" stroke-miterlimit="10" d="M717.603,122.167C686.265,97.428,595.551,66.09,591.426,64.44
	L457.832,22.38c-7.425-2.474-15.669-2.474-23.093,0.825c-18.144,7.422-57.729,7.422-57.729,7.422
	c-10.722,0-42.884-1.648-57.729-7.422c-7.424-3.299-15.669-3.299-23.917-0.825L162.596,65.265
	c-4.124,1.648-94.017,32.163-126.179,57.727c-3.298,2.475-4.121,7.422-1.646,10.721l73.396,127.824
	c1.649,3.3,5.772,4.949,9.896,4.123c5.771-1.646,23.916-4.946,32.987,0c3.298,1.65,4.944,4.125,6.597,8.248l-6.596,343.887
	c0,2.477,0.821,4.125,2.475,5.771c1.649,1.646,3.299,2.477,5.772,2.477H595.55c2.476,0,4.123-0.825,5.771-2.477
	c1.647-1.646,2.479-4.123,2.479-5.771l-6.602-343.887c0.825-3.299,3.302-5.773,6.602-8.248c9.896-5.771,27.215-2.474,32.984,0
	c3.299,0.824,7.424-0.824,9.896-4.123l73.396-127.824C721.727,129.59,720.902,124.641,717.603,122.167z"/>
<path fill="#2C3E50" d="M717.603,122.167C686.265,97.428,595.551,66.09,591.426,64.44L457.832,22.38
	c-7.425-2.474-15.669-2.474-23.093,0.825c-18.144,7.422-57.729,7.422-57.729,7.422c-10.722,0-42.884-1.648-57.729-7.422
	c-7.424-3.299-15.669-3.299-23.917-0.825L162.596,65.265c-4.124,1.648-94.017,32.163-126.179,57.727
	c-3.298,2.475-4.121,7.422-1.646,10.721l73.396,127.824c1.649,3.3,5.772,4.949,9.896,4.123c5.771-1.646,23.916-4.946,32.987,0
	c3.298,1.65,4.944,4.125,6.597,8.248l-6.596,343.887c0,2.477,0.821,4.125,2.475,5.771c1.649,1.646,3.299,2.477,5.772,2.477H595.55
	c2.476,0,4.123-0.825,5.771-2.477c1.647-1.646,2.479-4.123,2.479-5.771l-6.602-343.887c0.825-3.299,3.302-5.773,6.602-8.248
	c9.896-5.771,27.215-2.474,32.984,0c3.299,0.824,7.424-0.824,9.896-4.123l73.396-127.824
	C721.727,129.59,720.902,124.641,717.603,122.167z M377.013,111.447c-32.986,0-50.308-17.318-59.376-32.162
	c-9.896-15.669-11.545-30.513-11.545-31.338c0-3.299,1.648-5.773,4.946-5.773c0,0,0,0,0.824,0c2.477,0,4.948,1.649,5.772,4.948
	c0,0,1.648,14.021,9.896,27.214c10.724,17.318,28.039,26.391,50.308,26.391s39.584-9.072,50.306-26.391
	c8.247-13.194,9.896-26.39,9.896-27.214c0-2.474,2.475-4.948,5.771-4.948c0,0,0,0,0.822,0c3.301,0,4.948,3.3,4.948,5.773
	c0,0.825-1.647,15.669-11.547,31.338C427.319,94.128,410.003,111.447,377.013,111.447z M420.72,44.648L420.72,44.648L420.72,44.648
	c0,0-1.647,10.721-7.421,20.617c-8.248,13.194-19.795,18.968-36.288,18.968s-28.039-5.773-36.286-18.144
	c-6.598-9.896-7.422-20.616-7.422-20.616l0,0c19.792,3.299,42.884,3.299,43.708,3.299C378.665,47.947,400.926,47.947,420.72,44.648z
	 M118.89,247.518L52.092,131.24c33.811-22.268,114.63-50.306,115.451-50.306l122.055-38.761c-0.824,2.475-0.824,4.948-0.824,7.423
	c0,1.648,2.474,19.792,14.02,37.934c2.478,4.125,4.949,7.423,8.247,10.721c-96.485,27.216-148.44,122.054-161.638,149.268
	C138.681,244.219,126.312,245.869,118.89,247.518z M167.545,608.726l6.601-336.468c0-0.824,0-1.647,0-2.473
	c-1.648-6.598-4.948-11.547-9.07-15.669c12.368-24.741,65.147-120.403,159.984-141.845c0.825,0,0.825-0.825,1.647-0.825
	c14.021,9.896,31.339,15.669,51.132,15.669c18.97,0,36.285-4.948,50.306-14.844l0,0c97.312,21.441,150.916,122.052,160.812,143.494
	c-3.301,3.298-5.771,8.247-7.422,13.194c0,0.825,0,1.649,0,2.474l6.6,336.465H167.546L167.545,608.726L167.545,608.726z
	 M635.135,247.518c-7.424-1.649-20.616-3.299-32.984,0.825c-12.37-25.565-63.501-120.403-159.985-148.442
	c3.298-3.298,5.771-7.422,9.069-11.546c11.545-18.143,13.192-36.285,14.021-37.935c0-2.474,0-4.947-0.825-7.422l122.055,37.937
	c0.823,0,81.645,28.038,115.452,50.306L635.135,247.518z"/>
</svg>
